<svg version="1.2" xmlns="http://www.w3.org/2000/svg" viewBox="0 0 440 233" width="440" height="233"><style>.a{stroke:#000}</style><path class="a" d="m310.8 0.8c-5.3 5-0.1 15.5-3.7 21-0.6 0-0.3 0.1-0.7 0.4-4.2 2-9.7 3.1-13.9 3.2-0.2 0-1.3 0.4-2 0.7 3.9 1.1 7.9-0.2 11.2 0.3 1.2 0.2 2.2 0.4 3 0.7-2.2 4.1 2 4.3-0.6 10.2 5.1-4 4.7-4.3 6.1-8.5 1.5 0.2 1.6-0.6 4.8-1.1 3.5-0.7 4.9-0.8 12.8-0.7 2.6 0.1-0.3-1.9 0.8-2.3-3.1 0-4.3 0.2-9.6-1-2.5-0.6-3.3-0.7-5.5-1.1 2.8-4.4-5.4-15.8-2.7-21.8z"/><path class="a" d="m42.6 76.3c-6.9 3.1-12.8 17.2-16.8 23.2q-0.9 0.1-1.6 0.4c-4.6 2.2-10.6 3.4-15.3 3.6-0.2 0-1.4 0.4-2.1 0.7 4.2 1.2 8.6-0.2 12.3 0.4 1.3 0.2 2.3 0.4 3.2 0.7-3.2 5.7-18.4 11.4-21.8 17.5 5.9-5 22.1-10.3 25.9-16.5 1.6 0.2 3.7 0.2 7.3-0.3 3.8-0.8 10.4-2.2 19.1-2 1.2 0.1-0.6-1.4 0.5-1.8-3.3 0-9.5 0.7-15.2-0.6-2.8-0.6-5.4-1.3-7.8-1.8 3-4.8 7.6-18.8 12.3-23.5z"/><path class="a" d="m102.8 57.5c-7.9 3.5-14.5 11.7-19 18.5q-1.1 0-1.9 0.4c-5.3 2.6-12.1 3.9-17.5 4.1-0.2 0-1.6 0.6-2.4 0.8 4.8 1.4 9.9-0.1 14.1 0.5 1.5 0.2 2.7 0.5 3.7 0.8-3.7 6.6-4.5 6.8-8.4 13.8 6.8-5.8 8.7-5.6 13-12.6 1.8 0.2 4.3 0.2 8.4-0.4 4.3-0.9 11.9-2.5 21.9-2.2 1.3 0-0.7-1.7 0.6-2.1-3.9 0-10.9 0.7-17.5-0.7-3.1-0.7-6.2-1.5-8.9-2 3.5-5.5 8.5-13.5 13.9-18.9z"/><path class="a" d="m138.5 40.8c-5.8 5.5-4.9 15.4-8.8 21.3q-1 0.1-1.6 0.4c-4.6 2.2-10.5 3.4-15.1 3.5-0.2 0-1.4 0.5-2.1 0.7 4.2 1.2 8.5-0.1 12.1 0.4 1.4 0.2 2.4 0.5 3.2 0.7-3.1 5.7-0.6 12.4-3.9 18.4 5.8-5 4.9-10.2 8.6-16.3 1.6 0.2 3-0.9 6.6-1.3 3.7-0.9 5.2-0.9 13.8-0.8 2.8 0-0.3-2.2 0.8-2.5-3.3 0-4.7 0.1-10.3-1.1-2.7-0.6-5.4-1.3-7.7-1.7 3-4.8 1.4-15.1 4.4-21.7z"/><path class="a" d="m182.6 30c-4.9 4.6-7 14-10.4 19-0.5 0.1-0.2 0.2-0.6 0.4-3.9 1.8-8.9 2.8-12.9 3-0.1 0-1.1 0.4-1.7 0.6 3.5 1 7.2-0.1 10.3 0.3 1.1 0.2 2 0.4 2.7 0.6-2.7 4.9 2.5 12.6 4.5 18.6-0.4-7.7-2.5-11.8 0.6-17 1.4 0.2 1.5-0.6 4.5-1 3.2-0.7 4.4-0.7 11.8-0.6 2.4 0-0.3-1.8 0.7-2.1-2.9 0-4 0.1-8.8-1-2.3-0.5-4.6-1.1-6.6-1.5 2.6-4 3.4-13.7 5.9-19.3z"/><path class="a" d="m219.8 18.9c-5.5 5.2-5 15.5-8.8 21.2-0.6 0.1-0.3 0.2-0.7 0.4-4.4 2.1-10 3.3-14.5 3.4-0.2 0-1.3 0.5-2 0.7 4 1.2 8.2-0.1 11.7 0.4 1.2 0.2 2.2 0.4 3 0.7-3 5.4-5.1 14.3-2.8 21.1-0.5-8.8 5.1-13.5 8.6-19.3 1.5 0.1 1.7-0.7 5-1.1 3.6-0.8 5.1-0.9 13.3-0.8 2.8 0-0.2-2 0.8-2.4-3.2 0-4.5 0.2-9.9-1.1-2.6-0.5-5.1-1.2-7.4-1.6 2.9-4.6 0.9-15.3 3.7-21.6z"/><path class="a" d="m275.8 12.7c-10.4 6-11.6 10.1-16.4 17.3-0.8 0.1-0.4 0.3-1 0.5-5.5 2.7-12.8 4.2-18.5 4.4-0.3 0-1.7 0.5-2.5 0.8 5.1 1.5 10.4-0.1 14.8 0.5 1.7 0.2 2.9 0.5 4 0.9-3.9 6.9 5.4 10.7 13.6 13.6-6.5-7.2-10.8-3.9-6.2-11.3 1.9 0.2 2.1-0.9 6.4-1.4 4.6-1 6.4-1.1 17-1 3.5 0.1-0.4-2.6 1-3-4.1 0-5.7 0.2-12.7-1.4-3.3-0.7-6.6-1.6-9.4-2.1 1.6-6.3 2.8-9.8 9.9-17.8z"/><path class="a" d="m161.7 156.3c-7-6.6-0.2-20.6-5-27.7-0.7-0.1-0.4-0.3-0.9-0.5-5.5-2.7-12.7-4.1-18.4-4.4-0.2 0-1.6-0.5-2.5-0.8 5.1-1.4 10.4 0.2 14.8-0.5 1.6-0.2 2.8-0.5 3.8-0.8-2.8-5.5 2.8-5.8-0.7-13.6 6.8 5.3 6.3 5.7 8.1 11.3 1.9-0.2 2.1 0.8 6.3 1.4 4.6 1 6.4 1 16.9 0.9 3.5 0-0.4 2.6 1 3-4 0.1-5.7-0.1-12.6 1.4-3.3 0.8-4.4 1-7.3 1.5 3.7 5.8-7.1 20.8-3.5 28.7z"/><path class="a" d="m120.1 135c-6.9-3.1-12.8-17.2-16.8-23.1q-0.9-0.1-1.6-0.5c-4.6-2.2-10.6-3.4-15.3-3.5-0.2 0-1.4-0.5-2.1-0.7 4.2-1.2 8.6 0.1 12.3-0.4 1.3-0.2 2.3-0.5 3.2-0.7-3.2-5.8-11.5-6.1-14.9-12.2 5.9 5 15.2 5 19 11.1 1.6-0.2 3.7-0.1 7.3 0.3 3.8 0.9 10.4 2.2 19.1 2 1.2 0-0.6 1.5 0.5 1.8-3.3 0-9.5-0.6-15.2 0.7-2.8 0.6-2.4 0.5-4.7 0.9 3 4.8 4.5 19.6 9.2 24.3z"/><path class="a" d="m431.3 232.1c-10.4-6-16.6-5.1-21.4-12.3-0.8-0.1-0.4-0.2-0.9-0.5-5.6-2.7-12.9-4.1-18.6-4.4-0.2 0-1.7-0.5-2.5-0.8 5.1-1.5 10.4 0.2 14.9-0.5 1.6-0.2 2.8-0.5 3.9-0.8-3.9-7-1.8-17.7 6.3-20.6-6.5 7.2-3.4 10.8 1.1 18.3 1.9-0.3 2.1 0.8 6.4 1.4 4.6 1 6.4 1 17 0.9 3.5 0-0.3 2.6 1.1 3-4.1 0.1-5.8-0.1-12.8 1.4-3.3 0.8-6.5 1.6-9.4 2.1 1.6 6.3 7.8 4.8 14.9 12.8z"/><path class="a" d="m367 213.3c-7.8-3.5-14.4-11.6-19-18.4q-1.1-0.1-1.8-0.5c-5.3-2.5-12.1-3.9-17.5-4.1-0.3 0-1.6-0.5-2.4-0.8 4.8-1.4 9.8 0.2 14-0.4 1.6-0.3 2.7-0.6 3.7-0.9-3.6-6.5-4.4-6.8-8.3-13.8 6.8 5.8 8.7 5.6 13 12.6 1.8-0.2 4.3-0.1 8.4 0.4 4.3 0.9 11.9 2.5 21.9 2.2 1.3 0-0.7 1.7 0.6 2.1-3.9 0.1-11-0.7-17.5 0.8-3.1 0.7-6.2 1.4-8.9 1.9 3.4 5.5 8.5 13.5 13.8 18.9z"/><path class="a" d="m303.6 196.2c-5.8-5.4-4.9-15.3-8.8-21.2q-1-0.1-1.6-0.4c-4.6-2.2-10.5-3.4-15.1-3.6-0.2 0-1.4-0.4-2.1-0.7 4.2-1.1 8.5 0.2 12.1-0.3 1.4-0.2 2.4-0.5 3.2-0.7-3.1-5.7-0.6-12.4-3.9-18.4 5.8 5 4.9 10.2 8.6 16.3 1.6-0.2 3 0.9 6.6 1.3 3.7 0.9 5.2 0.9 13.8 0.8 2.8 0-0.3 2.1 0.8 2.5-3.3 0-4.7-0.2-10.3 1.1-2.7 0.6-5.4 1.3-7.7 1.7 3 4.8 1.4 15.1 4.4 21.6z"/><path class="a" d="m268.3 178.7c-4.9-4.6-14.3-15.5-17.7-20.5-0.5-0.1-0.2-0.2-0.6-0.4-3.9-1.9-8.9-2.9-12.9-3-0.1 0-1.1-0.4-1.7-0.6 3.5-1 7.2 0.1 10.3-0.3 1.1-0.2 2-0.4 2.7-0.6-2.7-4.9 5.6-16.8 10.7-22.1-2 7-8.7 15.2-5.6 20.5 1.4-0.2 1.5 0.5 4.5 0.9 3.2 0.7 4.4 0.8 11.8 0.7 2.4 0-0.3 1.8 0.7 2.1-2.9 0-4-0.1-8.8 1-2.3 0.5-4.6 1.1-6.6 1.4 2.6 4.1 10.7 15.3 13.2 20.9z"/><path class="a" d="m213.1 163.8c-5.6-5.2-5.1-15.6-8.8-21.3-0.6 0-0.3-0.2-0.7-0.4-4.4-2.1-10.1-3.2-14.5-3.4-0.3 0-1.4-0.4-2-0.7 4-1.1 8.1 0.2 11.6-0.3 1.3-0.2 2.2-0.5 3.1-0.7-3.1-5.5-5.2-14.3-2.9-21.2-0.5 8.8 5.1 13.5 8.7 19.4 1.5-0.2 1.6 0.6 5 1.1 3.6 0.8 5 0.8 13.3 0.7 2.7 0-0.3 2.1 0.8 2.4-3.2 0-4.5-0.1-10 1.1-2.5 0.6-5.1 1.2-7.3 1.7 2.8 4.5 0.8 15.3 3.7 21.6z"/></svg>