<svg version="1.2" xmlns="http://www.w3.org/2000/svg" viewBox="0 0 808 474" width="808" height="474"><defs><clipPath clipPathUnits="userSpaceOnUse" id="cp1"><path d="m0.45 0.07h807.55v473.54h-807.55z"/></clipPath></defs><style>.a{fill:#cea86a}.b{fill:#fffeff}.c{fill:#e2cba6}</style><g clip-path="url(#cp1)"><path class="a" d="m104.1 359.2c21.3-3 42.3-10.6 42.3-10.6 0 0 21.4-2.4 26.2-7.3l11.2-17.7c-0.7 0.7-14.5 14.2-23.7 8.6-7.1-4.2-13.4-12.2-16.3-16 1.8 2.9 3.4 8.1-3.9 10.2-10.5 3.2-12-4.3-13.7 2.8-1.7 7.1-1.9 4.9-12.2 9.3-10.3 4.3-27.3 17.4-30.4 2.1 0 0-0.8 21.7 20.5 18.6z"/><path class="b" d="m681.9 272.8c7.9 12.7-26.8 37.5 6.5 31.7 33.2-5.8 36.9 12.4 36.9 12.4 46-17.4 76.1 4.3 76.1 4.3 6.4-1 14.7-2.3 24.4-4 23.9-4.3 28.1-9.7 55.2-15.2 27.1-5.6 30.5-8.9 19.9-10-10.6-1-15 3.1-27.3-0.9-12.4-4-27-16.6-48.7 1.5 0 0-18-8.7-29.4 6 0 0-23.8-3.6-31 0.8 0 0-37.2-29.8-66.4-23.3 0 0-16.4-15.5-24-15.9-4.1 10.5 0 0 7.8 12.7m-443.1 22.8c-2.2-1.3-3.8-2.1-4.2-2.3-0.5-0.2 1.9 1.2 4.2 2.3zm-94.9 20.5q-0.7-1.1-1.5-2.1z"/><path class="b" d="m97.4 146.8q2.7 0.4 5.4 0.3h0.3c2.4-0.3 18.5-2.6 30.4-11.9 11.8-9.2 6.9-15.7 16.2-20.3 9.2-4.7 12.1-2.1 15.3-10.7 3.2-8.6-8.5-12.5 6.4-10 14.8 2.4 12-20.3 12-20.3l10.5 0.2c10.6 0.2 4.3-20.6 4.3-20.6 0 0 9.5-3.1 14.3-6.9 4.9-3.8-3.5-8-4.1-8.3-0.5-0.2 6.2 0.1 18.7-9.8 12.5-9.8 0.8-20.6-1-22.3l-0.2-0.2c-4.7-3.4-11.1-5.8-19.7-6-34.3-0.7-40.3 18.1-42.8 34.3-2.4 16.1 11.7 28.9 11.7 28.9 0 0-22.3 9.8-15.9 24.1 0 0-30.9-1.6-23.2 22.3 0 0-9.8 0.1-9.5 7.2 0 0-21.8 3.1-20.7 17.3 0 0-18.7 10.3-8.3 12.8"/><path class="b" d="m248.3 69.8c0 0-2.2 3.2 15.4 1.5 17.5-1.7 16.4-14 16.4-14 0 0 2.2 5.9 7.9 8 5.7 2 11.9-3.6 19.7-8 7.9-4.4 6.4-10.9 6.4-10.9 0 0 16.8-36.7-12.3-43.7-29.1-7.1-24.4 27.8-24.4 27.8 0 0-18.6-0.8-23.1 11.2 0 0-6.6-15.6-15-6 1 9.3-1.7 12.1-1.7 12.1 12.5-7.3 10.7 22 10.7 22z"/><path fill-rule="evenodd" class="b" d="m109.6 293.4c10.3-37.9 42.1-26.2 42.1-26.2 6.7-23.5 35.9-7.3 35.9-7.3 0.4-9.9 20.4-13.3 20.4-13.3 1.4-19.3 45.8-36.2 45.8-36.2-9.5-13-3.6-31.8-3.6-31.8l18.2-18c18-17.9 20.5 13.2 20.5 13.2 0 0 6.2-11.7 0.3-19.6-5.9-7.8-11.8-10 6.4-29.1 18.3-19.1 30.3 0.7 30.3 0.7 0 0 7.3-12.6 15.5-15 8.1-2.4 18.8 10.7 22.9 9.9 4.2-0.8 17.6 13.9 17.6 13.9 11.6-15.6 44.2 11.1 44.2 11.1-6.4-22.3-25.3-23.3-25.3-23.3-6.9-39-45.4-36.7-45.4-36.7-7.1-7.6-11.9 2.4-11.9 2.4-3.6-18.1-23.2-10.5-23.2-10.5 8-14.9-6.2-30.8-6.2-30.8 34.7-13.6 60.7 12.3 60.7 12.3 35.8-20.3 59.7 15.2 59.7 15.2 19.9-21.1 46.9 0.8 46.9 0.8 21.2-12.2 29.7 12.8 29.7 12.8 17.5-4.9 20.4 21.2 20.4 21.2 50.8 25.5 24.8 79.7 24.8 79.7 13-1.3 21 29.6 21 29.6 40.4-19.9 54.7 22.6 54.7 22.6 0 0-9.3 17.4-6 29.4 0 0-18.1-35.5-51.2-22.7-0.5-0.7-15.3-19.8-39.2-26.9-23.8-7-25.3-23.6-38.8-25.8-13.5-2.2-16.3-16-32.6-16.7-16.4-0.7-46.3 4.7-61.5 0.7-15.2-3.9-20-3.6-20-3.6l13.4 7.8c0 0 26.7 5.8 27.1 14.1 0 0 20.7 7.1 25.1 13.2 0 0-16.7-2.9-22.4 3.2 0 0-11.8-6.1-20.9-2.1 0 0-7.8-22.6-27.5-15.6-19.7 7-31.9 2.5-31.9 2.5 0 0 22.9 21.3 5.8 28.3-17.2 7-17.6 8.2-30.2 16.9-12.5 8.7-33.3-2.1-40.6 10.8 0 0 19.9 6.7 23.3 23.8 3.5 17.2 9.3 37 20.1 34.8l10.7-2.2 15.9 9.4 15.8 9.4c0 0-0.6 12.7 9.5 18 10.1 5.3 27.1-2.7 31.7 10.7 0 0-23.2-8.6-32.2 6.6-7.6 12.8-8.4-3.4-21.3-13 0 0-23.1-25.2-40.5-26-17.4-0.8-19.5-4.8-24.4-10-4.9-5.3-7.9-18.1-20.7-14-9.1 2.9-22.6-2.7-29.5-6.1 5.8 3.3 15.3 9.7 17.3 16.8 2.9 10.4-5.3 3-16.5 6.7-11.2 3.6-12.6 0.1-22.5 7.4-9.9 7.3-5.5 18.2 8.2 27.2 13.7 8.9-5.6 3.5-18.1 0.8-12.5-2.8-18.8-14.7-26.1-9-6 4.7-11.2 5.1-17.2 7.8q3.2-2.2 5.4-5.3 2.2-3.2 3.1-6.9l11.3-17.7c-0.7 0.6-14.5 14.2-23.8 8.6-7-4.2-13.3-12.2-16.2-16q-0.7-1.2-1.5-2.2l1.5 2.2c1.7 2.9 3.4 8-3.9 10.2-10.5 3.1-12-4.3-13.8 2.8-1.7 7.1-1.9 4.9-12.1 9.2-10.3 4.4-27.5 17.4-30.5 2.1l-13.3-11.6c-13.3-11.6 39.4-36.1 39.4-36.1m124.8 1.1c0.5 0.2 2 1.1 4.2 2.2-2.2-1.2-4.7-2.5-4.2-2.2z"/><path class="a" d="m103.1 147.1c18.8-0.8 67.7-10.8 67.7-10.8 0 0 48.9 13.5 63.3-6.4 0 0 0.9 10.2 9.2 8.6 0 0-5.8 11 4.6 22.5 0 0-2.7 9.7 2.3 17.2l18.1-18c18.1-17.9 20.5 13.2 20.5 13.2 0 0 6.3-11.7 0.4-19.6-6-7.8-12-10.1 6.4-29.1 18.3-19 30.3 0.7 30.3 0.7 0 0 7.3-12.6 15.4-15 8.1-2.4 18.8 10.8 23 9.9 4.1-0.8 17.6 13.9 17.6 13.9 11.6-15.7 44.1 11.1 44.1 11.1-6.4-22.3-25.3-23.3-25.3-23.3-6.9-39-45.4-36.7-45.4-36.7-7.1-7.5-11.8 2.4-11.8 2.4-3.7-18-23.2-10.5-23.2-10.5 7.9-14.9-6.3-30.8-6.3-30.8 0 0 1.6 6.4-6.3 10.8-7.9 4.4-14.1 10-19.7 8-5.7-2-7.9-7.9-7.9-7.9 0 0 1 12.3-16.4 14-17.5 1.7-15.4-1.5-15.4-1.5 0 0 1.8-29.3-10.7-22 0 0 2.8-2.8 1.7-12.1 0 0 0.6-19.3-13.3-29.4 1.8 1.6 13 12.9 1 22.3-12 9.5-18.2 9.8-18.6 9.8-0.4 0 8.8 4.6 4.1 8.2-4.7 3.7-14.4 6.9-14.4 6.9 0 0 6.4 20.9-4.2 20.7l-10.6-0.2c0 0 2.9 22.7-12 20.3-14.9-2.5-3.2 1.4-6.3 10-3.2 8.6-6.2 6-15.4 10.6-9.2 4.7-3.4 10.3-16.2 20.4-12.8 10-27.9 11.6-30.3 11.8"/><path class="a" d="m3.1 473.1c7.2 4.4 65.8-16.8 79.2-16.2 13.4 0.5 59.1-1.7 104.2-9.6 45.2-7.9 183.6-36.3 198.3-40.6 14.7-4.3 31.9 3.9 82.2-1.2 50.4-5.1 87.6-8.8 112.7-30.2 25.1-21.4 98.2-36.4 150.9-43.9 52.6-7.5 56-8.2 56-8.2 0 0 5.4-0.6 14.7-2 0 0-30-21.7-76-4.3 0 0-3.7-18.2-37-12.4-33.3 5.8 1.4-19-6.4-31.7-7.9-12.7-11.9-2.1-7.9-12.7 0 0-16.1-34-42-19.5 0 0-9.4 17.4-6 29.4 0 0-18.1-35.5-51.3-22.7-6.7 2.6-14 7.2-22.1 14.6 0 0-58.1-11.4-49.1 33.1 0 0-7.6-19.6-23.8-12 0 0-14.1-32.8-44.6-18.1-30.5 14.7-25.3 17.4-41.3 7.2-16-10.2-20.4-13.5-26.6-7-6.1 6.5-18.6-9-33.4 4.7 0 0-5-15.5-16.2-10.7-11.2 4.8-21-16.8-37.2-4.8 0 0 19.9 6.6 23.4 23.8 3.4 17.1 9.3 37 20 34.8l10.7-2.2 15.9 9.3 15.9 9.4c0 0-0.7 12.8 9.5 18 10.1 5.3 27.1-2.7 31.7 10.8 0 0-23.2-8.6-32.2 6.5-7.6 12.9-8.5-3.4-21.3-13q-3.8-2.9-8.3-4.4c-21-7.2-30.3-7.4-30.3-7.4 0 0-3.1-11-18.2-2.6-15.1 8.4-23.5 21.7-29.7 28.2-6.1 6.5-28.4-2.6-28.4-2.6 0 0 3.8 26.4 15.8 30.3-0.9-0.2-14.2-2.8-14.4 7.2-0.2 10-7.9 14.5-20.2 16.9-12.2 2.5-14.9-8.7-27.4-5.1-12.4 3.5 14.1-2.4 2.2 10.3-12 12.7-24.8 10.2-38.4 7.9-13.7-2.3-17.5 10.2-27.7 8.8-10.3-1.5-10.4-15.3-31.9-6.9-21.4 8.5-89.4 50.3-92.3 27.7-3.5 6.4-6.9 10-1.7 13.1z"/><path class="c" d="m97.2 432.2c21.4-8.5 21.5 5.4 31.8 6.9 10.3 1.5 14.1-11.1 27.7-8.8 13.7 2.3 26.4 4.9 38.4-7.8 12-12.7-14.5-6.8-2.1-10.4 12.4-3.6 15.2 7.6 27.4 5.2 12.2-2.5 20-6.7 20.2-17 0.2-10.3 13.5-7.3 14.4-7.2-12.1-3.8-15.9-30.3-15.9-30.3 0 0 22.3 9.1 28.5 2.6 6.1-6.5 14.6-19.8 29.7-28.2 15.1-8.4 18.1 2.6 18.1 2.6 0 0 9.4 0.2 30.4 7.4q4.5 1.6 8.3 4.4c0 0-23.2-25.2-40.6-26-17.4-0.8-19.4-4.7-24.3-9.9-4.9-5.3-8-18.1-20.8-14.1-9.1 2.9-22.6-2.6-29.5-6 5.8 3.3 15.2 9.7 17.3 16.8 2.9 10.4-5.4 2.9-16.5 6.6-11.1 3.8-12.6 0.2-22.5 7.5-9.8 7.2-5.5 18.1 8.2 27.1 13.7 9.1-5.6 3.6-18.1 0.8-12.5-2.7-18.7-14.7-26.1-8.9-6 4.6-11.2 5.1-17.2 7.7q-1.9 1.3-4.1 2.2c-10.7 4.1-27 23.1-25.1 29.9 0 0-37.9 11.7-59.9 28.5-22 16.8-30.4 23.8-41 22.8-10.6-1.1-22.1 1.9-25.3 14.3q-1.3 4.6-3.6 8.8c2.9 22.6 70.9-19.2 92.3-27.7"/><path class="c" d="m280.4 254.3c16.3-11.9 26.1 9.6 37.2 4.9 11.1-4.7 16.2 10.6 16.2 10.6 14.8-13.6 27.3 1.9 33.4-4.6 6.1-6.5 10.6-3.2 26.6 7 16 10.1 10.8 7.4 41.3-7.2 30.5-14.7 44.6 18.1 44.6 18.1 16.2-7.6 23.8 11.9 23.8 11.9-9-44.4 49.1-33.1 49.1-33.1 8.1-7.3 15.4-12 22.1-14.5-0.4-0.6-15.7-19.9-39.1-26.9-23.5-7-25.4-23.7-38.9-25.8-13.5-2.2-16.2-16-32.6-16.7-16.3-0.7-46.4 4.7-61.5 0.7-15.1-4-20-3.6-20-3.6l13.4 7.9c0 0 26.7 5.8 27.1 14.1 0 0 20.8 7 25.1 13.2 0 0-16.7-2.9-22.3 3.2 0 0-11.8-6-21-2.1 0 0-7.7-22.6-27.5-15.6-19.8 7-31.9 2.5-31.9 2.5 0 0 23 21.3 5.8 28.3-17.2 7-17.6 8.2-30.1 16.9-12.5 8.6-33.4-2.1-40.7 10.8"/></g></svg>