<svg version="1.2" xmlns="http://www.w3.org/2000/svg" viewBox="0 0 707 475" width="707" height="475"><defs><clipPath clipPathUnits="userSpaceOnUse" id="cp1"><path d="m0 0.87h706.5v473.54h-706.5z"/></clipPath></defs><style>.a{fill:#cea86a}.b{fill:#fffeff}.c{fill:#e2cba6}</style><g clip-path="url(#cp1)"><path class="a" d="m602.9 360c-21.3-3-42.3-10.6-42.3-10.6 0 0-21.4-2.4-26.2-7.3l-11.3-17.7c0.7 0.7 14.5 14.2 23.8 8.6 7-4.2 13.4-12.2 16.2-16-1.7 2.9-3.4 8.1 3.9 10.2 10.5 3.2 12.1-4.3 13.8 2.8 1.7 7.1 1.8 4.9 12.2 9.3 10.3 4.3 27.3 17.4 30.4 2.1 0 0 0.8 21.7-20.5 18.6z"/><path class="b" d="m25 273.6c-7.9 12.7 26.9 37.5-6.4 31.7-33.3-5.8-37 12.4-37 12.4-45.9-17.4-76 4.3-76 4.3-6.4-1-14.7-2.3-24.4-4-24-4.3-28.1-9.7-55.2-15.2-27.2-5.6-30.5-8.9-19.9-10 10.5-1 14.9 3.1 27.3-0.9 12.4-4 27-16.6 48.7 1.5 0 0 17.9-8.7 29.4 6 0 0 23.7-3.6 30.9 0.8 0 0 37.2-29.8 66.5-23.3 0 0 16.4-15.5 24-15.9 4 10.5 0 0-7.9 12.7m443.2 22.8c2.1-1.3 3.7-2.1 4.2-2.3 0.5-0.2-2 1.2-4.2 2.3zm94.8 20.5q0.7-1.1 1.6-2.1z"/><path class="b" d="m609.6 147.6q-2.7 0.4-5.5 0.3h-0.3c-2.4-0.3-18.5-2.6-30.3-11.9-11.8-9.2-6.9-15.7-16.2-20.3-9.3-4.7-12.2-2.1-15.4-10.7-3.1-8.6 8.5-12.5-6.3-10-14.8 2.4-12.1-20.3-12.1-20.3l-10.5 0.2c-10.5 0.2-4.2-20.6-4.2-20.6 0 0-9.5-3.1-14.4-6.9-4.8-3.8 3.6-8 4.1-8.3 0.6-0.3-6.1 0.1-18.6-9.8-12.5-9.8-0.8-20.6 1-22.3l0.2-0.2c4.7-3.4 11.1-5.8 19.7-6 34.3-0.7 40.3 18.1 42.7 34.3 2.5 16.1-11.6 28.9-11.6 28.9 0 0 22.2 9.8 15.9 24.1 0 0 30.9-1.6 23.1 22.3 0 0 9.8 0.1 9.5 7.2 0 0 21.9 3.1 20.8 17.3 0 0 18.6 10.3 8.3 12.8"/><path class="b" d="m458.6 70.6c0 0 2.2 3.2-15.3 1.5-17.6-1.7-16.4-14-16.4-14 0 0-2.3 5.9-8 8-5.7 2-11.8-3.6-19.7-8-7.9-4.4-6.3-10.9-6.3-10.9 0 0-16.9-36.7 12.3-43.7 29.1-7.1 24.3 27.8 24.3 27.8 0 0 18.6-0.8 23.1 11.2 0 0 6.6-15.6 15.1-6-1.1 9.3 1.6 12.1 1.6 12.1-12.5-7.3-10.7 22-10.7 22z"/><path fill-rule="evenodd" class="b" d="m597.3 293.7c0 0 52.7 24.5 39.3 36.1l-13.2 11.6c-3.1 15.3-20.3 2.3-30.5-2.1-10.3-4.3-10.5-2.1-12.2-9.2-1.7-7.1-3.2 0.3-13.8-2.8-7.2-2.2-5.6-7.3-3.9-10.2l1.6-2.2q-0.9 1-1.6 2.2c-2.8 3.8-9.2 11.8-16.2 16-9.2 5.6-23.1-8-23.7-8.6l11.2 17.7q1 3.7 3.2 6.9 2.2 3.1 5.4 5.3c-6.1-2.7-11.2-3.1-17.2-7.8-7.4-5.7-13.6 6.2-26.1 9-12.5 2.7-31.8 8.1-18.1-0.8 13.7-9 18-19.9 8.2-27.2-9.9-7.3-11.4-3.8-22.5-7.4-11.2-3.7-19.5 3.7-16.5-6.7 2-7.1 11.5-13.5 17.3-16.8-7 3.4-20.4 9-29.6 6.1-12.7-4.1-15.8 8.7-20.7 14-4.9 5.2-6.9 9.2-24.3 10-17.4 0.8-40.6 26-40.6 26-12.8 9.6-13.7 25.8-21.3 13-9-15.2-32.1-6.6-32.1-6.6 4.5-13.4 21.5-5.4 31.7-10.7 10.1-5.3 9.4-18 9.4-18l15.9-9.4 15.9-9.4 10.7 2.2c10.7 2.2 16.6-17.6 20-34.8 3.5-17.1 23.4-23.8 23.4-23.8-7.3-12.9-28.2-2.1-40.7-10.8-12.5-8.7-13-9.9-30.1-16.9-17.1-7 5.8-28.3 5.8-28.3 0 0-12.2 4.5-31.9-2.5-19.8-7-27.5 15.6-27.5 15.6-9.1-4-21 2.1-21 2.1-5.6-6.1-22.3-3.2-22.3-3.2 4.3-6.1 25-13.2 25-13.2 0.5-8.3 27.2-14.1 27.2-14.1l13.4-7.8c0 0-4.9-0.3-20 3.6-15.2 4-45.2-1.4-61.5-0.7-16.4 0.7-19.1 14.5-32.6 16.7-13.5 2.2-15.1 18.8-38.9 25.8-23.8 7.1-38.7 26.2-39.2 26.9-33-12.8-51.2 22.7-51.2 22.7 3.4-12-6-29.4-6-29.4 0 0 14.4-42.5 54.7-22.6 0 0 8-30.9 21-29.6 0 0-25.9-54.2 24.8-79.7 0 0 3-26.1 20.5-21.2 0 0 8.5-25 29.7-12.8 0 0 26.9-21.9 46.9-0.8 0 0 23.9-35.5 59.6-15.2 0 0 26-25.9 60.8-12.3 0 0-14.2 15.9-6.3 30.8 0 0-19.6-7.6-23.2 10.5 0 0-4.8-10-11.8-2.4 0 0-38.5-2.3-45.4 36.7 0 0-19 1-25.3 23.3 0 0 32.6-26.7 44.1-11.1 0 0 13.5-14.7 17.6-13.9 4.2 0.8 14.9-12.3 23-9.9 8.1 2.4 15.4 15 15.4 15 0 0 12.1-19.8 30.3-0.7 18.3 19.1 12.3 21.3 6.4 29.1-5.9 7.9 0.4 19.6 0.4 19.6 0 0 2.4-31.1 20.5-13.2l18.1 18c0 0 6 18.8-3.6 31.8 0 0 44.5 16.9 45.8 36.2 0 0 20.1 3.4 20.4 13.3 0 0 29.3-16.2 36 7.3 0 0 31.8-11.7 42 26.2m-129.1 2.8c2.3-1.1 3.8-2 4.3-2.2 0.4-0.3-2.1 1-4.3 2.2z"/><path class="a" d="m603.8 147.9c-18.7-0.8-67.7-10.8-67.7-10.8 0 0-48.8 13.5-63.2-6.4 0 0-1 10.2-9.2 8.6 0 0 5.8 10.9-4.6 22.5 0 0 2.6 9.7-2.3 17.2l-18.2-18c-18-17.9-20.5 13.2-20.5 13.2 0 0-6.3-11.7-0.3-19.6 6-7.8 11.9-10.1-6.4-29.1-18.3-19-30.3 0.7-30.3 0.7 0 0-7.3-12.6-15.4-15-8.2-2.4-18.8 10.8-23 9.9-4.2-0.8-17.6 13.9-17.6 13.9-11.6-15.7-44.1 11.1-44.1 11.1 6.3-22.3 25.2-23.3 25.2-23.3 6.9-39 45.4-36.7 45.4-36.7 7.1-7.5 11.9 2.4 11.9 2.4 3.6-18 23.2-10.5 23.2-10.5-7.9-14.9 6.2-30.8 6.2-30.8 0 0-1.5 6.4 6.4 10.8 7.8 4.4 14.1 10 19.7 8 5.6-2 7.9-7.9 7.9-7.9 0 0-1.1 12.3 16.4 14 17.4 1.7 15.3-1.5 15.3-1.5 0 0-1.8-29.3 10.7-22 0 0-2.7-2.8-1.6-12.1 0 0-0.6-19.3 13.2-29.4-1.8 1.6-12.9 12.9-1 22.3 12 9.4 18.3 9.8 18.7 9.8 0.4 0-8.8 4.6-4.1 8.2 4.7 3.7 14.4 6.9 14.4 6.9 0 0-6.4 20.9 4.2 20.7l10.5-0.2c0 0-2.8 22.7 12.1 20.2 14.8-2.4 3.1 1.5 6.3 10.1 3.2 8.6 6.2 6 15.4 10.6 9.2 4.7 3.4 10.3 16.2 20.4 12.7 10 27.9 11.6 30.3 11.8"/><path class="a" d="m703.9 473.9c-7.3 4.4-65.9-16.8-79.3-16.3-13.3 0.6-59-1.6-104.2-9.5-45.1-7.9-183.5-36.3-198.2-40.6-14.7-4.3-31.9 3.9-82.3-1.2-50.3-5.1-87.6-8.8-112.7-30.2-25-21.4-98.1-36.4-150.8-43.9-52.7-7.5-56.1-8.2-56.1-8.2 0 0-5.3-0.6-14.7-2 0 0 30.1-21.7 76.1-4.3 0 0 3.7-18.2 37-12.4 33.2 5.8-1.5-19 6.4-31.7 7.9-12.7 11.9-2.1 7.9-12.7 0 0 16.1-34 42-19.5 0 0 9.4 17.4 6 29.4 0 0 18.1-35.5 51.2-22.7 6.8 2.6 14.1 7.2 22.1 14.5 0 0 58.1-11.3 49.1 33.2 0 0 7.7-19.7 23.8-12 0 0 14.1-32.8 44.6-18.1 30.5 14.7 25.4 17.4 41.4 7.2 16-10.2 20.4-13.5 26.5-7 6.2 6.5 18.6-9 33.5 4.7 0 0 5-15.5 16.1-10.7 11.2 4.8 21-16.8 37.2-4.8 0 0-19.9 6.6-23.3 23.8-3.5 17.1-9.4 37-20.1 34.8l-10.7-2.2-15.9 9.3-15.9 9.4c0 0 0.7 12.8-9.4 18-10.1 5.3-27.1-2.7-31.7 10.8 0 0 23.1-8.6 32.1 6.5 7.7 12.9 8.5-3.4 21.4-13q3.7-2.9 8.2-4.4c21.1-7.2 30.4-7.4 30.4-7.4 0 0 3-11 18.1-2.6 15.1 8.3 23.6 21.6 29.7 28.2 6.2 6.5 28.5-2.6 28.5-2.6 0 0-3.8 26.4-15.9 30.3 0.9-0.2 14.2-2.8 14.4 7.2 0.2 10 8 14.5 20.2 16.9 12.3 2.5 15-8.7 27.4-5.1 12.5 3.5-14-2.4-2.1 10.3 11.9 12.7 24.7 10.2 38.4 7.9 13.6-2.3 17.4 10.2 27.7 8.8 10.3-1.5 10.4-15.3 31.8-6.9 21.5 8.5 89.4 50.3 92.3 27.7 3.5 6.4 6.9 10 1.8 13.1z"/><path class="c" d="m609.8 433c-21.5-8.5-21.5 5.4-31.9 6.9-10.3 1.5-14.1-11.1-27.7-8.8-13.6 2.3-26.4 4.9-38.4-7.8-11.9-12.7 14.6-6.8 2.1-10.4-12.4-3.6-15.1 7.6-27.3 5.2-12.3-2.5-20-6.7-20.2-17-0.2-10.3-13.5-7.3-14.5-7.2 12.2-3.8 15.9-30.3 15.9-30.3 0 0-22.3 9.1-28.4 2.6-6.2-6.5-14.7-19.8-29.7-28.2-15.1-8.4-18.2 2.6-18.2 2.6 0 0-9.3 0.2-30.3 7.4q-4.5 1.6-8.3 4.4c0 0 23.1-25.2 40.6-26 17.4-0.8 19.4-4.7 24.3-9.9 4.9-5.3 7.9-18.1 20.7-14.1 9.1 2.9 22.6-2.6 29.5-6-5.7 3.3-15.2 9.7-17.2 16.8-3 10.4 5.3 2.9 16.4 6.6 11.1 3.8 12.7 0.2 22.5 7.5 9.9 7.2 5.5 18.1-8.2 27.1-13.7 9.1 5.6 3.6 18.2 0.8 12.5-2.7 18.7-14.7 26-9 6 4.7 11.3 5.2 17.2 7.8q2 1.3 4.1 2.2c10.8 4.1 27.1 23.1 25.1 29.9 0 0 38 11.7 60 28.5 21.9 16.8 30.3 23.8 40.9 22.8 10.6-1.1 22.1 1.9 25.4 14.3q1.2 4.6 3.6 8.8c-2.9 22.6-70.9-19.2-92.4-27.7"/><path class="c" d="m426.5 255.1c-16.2-11.9-26 9.6-37.2 4.9-11.1-4.7-16.1 10.6-16.1 10.6-14.9-13.6-27.4 1.9-33.5-4.6-6.1-6.5-10.5-3.2-26.5 7-16 10.1-10.9 7.4-41.4-7.2-30.5-14.7-44.6 18.1-44.6 18.1-16.1-7.6-23.8 11.9-23.8 11.9 9-44.4-49.1-33.1-49.1-33.1-8-7.3-15.3-12-22.1-14.6 0.5-0.5 15.8-19.8 39.2-26.8 23.4-7 25.3-23.7 38.8-25.8 13.5-2.2 16.3-16 32.6-16.7 16.4-0.7 46.4 4.7 61.5 0.7 15.1-4 20.1-3.6 20.1-3.6l-13.5 7.9c0 0-26.6 5.8-27.1 14.1 0 0-20.7 7-25.1 13.2 0 0 16.8-2.9 22.4 3.2 0 0 11.8-6 21-2.1 0 0 7.6-22.6 27.4-15.6 19.8 7 31.9 2.5 31.9 2.5 0 0-22.9 21.3-5.7 28.3 17.2 7 17.6 8.2 30.1 16.9 12.5 8.6 33.3-2.1 40.7 10.8"/></g></svg>