<svg version="1.2" xmlns="http://www.w3.org/2000/svg" viewBox="0 0 844 672" width="844" height="672"><style></style><path  d="m355 158c-15.9-50.1-31.2-51.8-30.9-74.9 0.7-48 67.2-84.8 68.9-83.1 0.8 0.8-13.9 10.7-22 32-9.7 25.5-3.2 49.8-2 54 11.8 41.8 46.3 39.8 56 76 8.2 30.3-10.6 61.4-18 74-9.2 15.8-19.4 25.7-28 34-20.2 19.6-47.8 38.3-52 34-5-5 31.7-31.2 38-78 3.4-25-3.1-46.1-10-68z"/><path  d="m495.2 191.6c-11.3-35.8-22.2-37-22-53.5 0.5-34.1 47.9-60.4 49.1-59.2 0.6 0.6-9.9 7.7-15.7 22.8-6.9 18.2-2.2 35.5-1.4 38.5 8.4 29.9 33 28.4 39.9 54.2 5.8 21.6-7.6 43.8-12.8 52.8-6.5 11.2-13.8 18.3-20 24.2-14.4 14-34 27.3-37 24.3-3.6-3.6 22.5-22.3 27.1-55.7 2.4-17.8-2.2-32.8-7.2-48.4z"/><path  d="m245.2 193.6c-11.3-35.8-22.2-37-22-53.5 0.5-34.1 47.9-60.4 49.1-59.2 0.6 0.6-9.9 7.7-15.7 22.8-6.9 18.2-2.2 35.5-1.4 38.5 8.4 29.9 33 28.4 39.9 54.2 5.8 21.6-7.6 43.8-12.8 52.8-6.5 11.2-13.8 18.3-20 24.2-14.4 14-34 27.3-37 24.3-3.6-3.6 22.5-22.3 27.1-55.7 2.4-17.8-2.2-32.8-7.2-48.4z"/><path fill-rule="evenodd" d="m584.8 581.7c-50.5 0-91.5-41-91.5-91.4 0-50.5 41-91.5 91.5-91.5 50.4 0 91.4 41 91.4 91.5 0 50.4-41 91.4-91.4 91.4zm0-147.5c-30.9 0-56.1 25.2-56.1 56.1 0 30.8 25.2 56 56.1 56 30.9 0 56-25.2 56-56 0-30.9-25.1-56.1-56-56.1z"/><path  d="m135.5 365.8c0 199.9 106.2 276.5 237.3 276.5 131 0 237.2-76.6 237.2-276.5z"/><path  d="m596.6 631.8c0 22.2-96.6 40.2-215.7 40.2-119.1 0-215.6-18-215.6-40.2 0-22.1 96.5-40.1 215.6-40.1 119.1 0 215.7 18 215.7 40.1z"/><path  d="m72.5 430c1.4-0.1 1.4 27.5 6 49.2 19.8 93.6 137.1 138.3 135.6 140.7-1.4 2.4-120.3-36.1-140.6-125.6-6.8-29.6-2.6-64.2-1-64.3z"/><path  d="m734.5 413.6c-1.8-0.1-1.8 33.3-7.4 59.8-24 113.6-166.5 167.9-164.7 170.8 1.7 2.9 146.1-43.8 170.8-152.5 8.2-36 3.2-78 1.3-78.1z"/><path  d="m112.6 425.5c0 11.4-9.2 20.6-20.6 20.6-11.3 0-20.5-9.2-20.5-20.6 0-11.4 9.2-20.6 20.5-20.6 11.4 0 20.6 9.2 20.6 20.6z"/><path  d="m68.4 467.7c0 11.4-9.2 20.6-20.6 20.6-11.3 0-20.6-9.2-20.6-20.6 0-11.4 9.3-20.6 20.6-20.6 11.4 0 20.6 9.2 20.6 20.6z"/><path  d="m125.8 495.8c0 9.7-7.9 17.6-17.6 17.6-9.8 0-17.7-7.9-17.7-17.6 0-9.8 7.9-17.7 17.7-17.7 9.7 0 17.6 7.9 17.6 17.7z"/><path  d="m101.6 564.1c0 11.4-9.2 20.6-20.6 20.6-11.4 0-20.6-9.2-20.6-20.6 0-11.3 9.2-20.6 20.6-20.6 11.4 0 20.6 9.3 20.6 20.6z"/><path  d="m146.8 604.6c0 7.6-6.2 13.8-13.8 13.8-7.7 0-13.8-6.2-13.8-13.8 0-7.6 6.1-13.8 13.8-13.8 7.6 0 13.8 6.2 13.8 13.8z"/><path  d="m731.3 404.9c0 9.5-7.7 17.2-17.2 17.2-9.6 0-17.3-7.7-17.3-17.2 0-9.6 7.7-17.3 17.3-17.3 9.5 0 17.2 7.7 17.2 17.3z"/><path  d="m787.5 463c0 13.8-11.2 25-25.1 25-13.8 0-25-11.2-25-25 0-13.8 11.2-25 25-25 13.9 0 25.1 11.2 25.1 25z"/><path  d="m715.4 497.6c0 10.2-8.2 18.5-18.5 18.5-10.2 0-18.5-8.3-18.5-18.5 0-10.2 8.3-18.5 18.5-18.5 10.3 0 18.5 8.3 18.5 18.5z"/><path  d="m717.3 609.2c0 11.4-9.3 20.6-20.7 20.6-11.4 0-20.6-9.2-20.6-20.6 0-11.4 9.2-20.7 20.6-20.7 11.4 0 20.7 9.3 20.7 20.7z"/><path  d="m756.9 563.1c0 13.8-11.2 25-25 25-13.8 0-25-11.2-25-25 0-13.8 11.2-25 25-25 13.8 0 25 11.2 25 25z"/><path  d="m20 423.5c-19.8-9.4-5.7-64.9-17.7-93.2-0.7-1.9-3.6-8.3-1.6-9.9 2-1.7 8.3 3 10.9 4.9 37.1 27 48.5 26.9 56.6 44.4 5 10.8 8.4 27.8 0.9 35.3-2 2-5.6 4.1-7.9 3-4.3-2.2 1.2-14.2-5.3-21.1-2.5-2.7-3.6-1-9.3-5.1-3.3-2.4-5.7-5-10.2-10.1-6.5-7.3-6.9-8.9-8.2-8.7-4 0.5-8.6 15.3-5.1 29.6 4 15.9 16.1 22.7 13.3 28.1-1.9 3.7-10.3 5.7-16.4 2.8z"/><path  d="m818.8 416.5c24.2-11.6 7-79.4 21.6-114 0.9-2.2 4.4-10.1 2-12.1-2.5-2-10.2 3.7-13.4 6-45.3 33.1-59.2 32.9-69.1 54.3-6.2 13.2-10.4 34-1.2 43.1 2.5 2.5 6.9 5.1 9.7 3.7 5.3-2.6-1.5-17.4 6.4-25.7 3.1-3.3 4.5-1.3 11.4-6.3 4.1-3 7-6.1 12.5-12.3 7.9-9 8.4-10.9 10-10.7 4.9 0.6 10.6 18.7 6.3 36.1-4.9 19.5-19.7 27.8-16.2 34.4 2.3 4.6 12.5 7.1 20 3.5z"/><path  d="m721.3 631.3c3.1 13.2 38.3 11.9 53.8 22.7 1 0.7 4.5 3.3 5.8 2.3 1.2-1-0.8-5.4-1.6-7.2-11.4-25.8-9.9-32.7-19.3-39.8-5.9-4.5-15.6-8.7-21.1-5.2-1.5 1-3.3 2.9-2.9 4.4 0.8 2.9 8.7 1.1 12 5.9 1.3 1.9 0.2 2.4 1.9 6.3 1 2.3 2.3 4.1 4.7 7.4 3.6 4.9 4.5 5.3 4.2 6.1-0.8 2.4-10.3 3.2-18.5-0.8-9-4.4-11.5-12.6-15.2-11.6-2.4 0.7-4.7 5.4-3.8 9.5z"/><path  d="m92.4 590.5c-10.1-4.4-26.5 19.3-41.2 24.2-1 0.3-4.4 1.3-4.3 2.6 0 1.3 3.9 2.2 5.5 2.5 22.5 5.1 26.2 9.5 35.5 6.8 5.8-1.7 13.4-6 13.7-11.3 0.1-1.5-0.2-3.6-1.4-4-2.3-1-5 5.1-9.8 4.9-1.8-0.1-1.6-1-5-1.8-2-0.5-3.8-0.5-7.2-0.5-4.9-0.1-5.7 0.3-6-0.3-1.2-1.6 2.9-8.3 9.5-11.7 7.3-3.8 13.9-1.4 15.1-4.3 0.7-1.9-1.3-5.8-4.4-7.1z"/><path  d="m90.4 396.8c-6.3-9.1 13.7-29.8 15.5-45.2 0.1-1 0.5-4.5 1.7-4.7 1.4-0.3 3 3.4 3.6 4.8 9.5 21.1 14.5 23.9 13.7 33.5-0.5 6-3.2 14.3-8.3 15.7-1.4 0.4-3.6 0.4-4.3-0.6-1.3-2 4.1-5.9 3-10.5-0.5-1.9-1.4-1.4-2.8-4.6-0.9-1.9-1.3-3.6-2-7-1-4.8-0.8-5.6-1.4-5.8-1.9-0.8-7.6 4.5-9.6 11.6-2.2 8 1.4 14-1.2 15.7-1.8 1.1-5.9-0.1-7.9-2.9z"/><path  d="m693.3 367.6c-7.7-11.1 16.7-36.5 19-55.3 0.1-1.2 0.5-5.5 2-5.8 1.7-0.3 3.6 4.2 4.4 6 11.6 25.7 17.8 29.1 16.8 40.9-0.6 7.4-3.9 17.5-10.2 19.2-1.7 0.5-4.3 0.5-5.2-0.8-1.7-2.5 5-7.2 3.6-12.9-0.6-2.2-1.7-1.7-3.4-5.6-1.1-2.3-1.6-4.4-2.4-8.4-1.3-6-1-6.9-1.8-7.2-2.3-1-9.3 5.6-11.7 14.3-2.7 9.7 1.7 17-1.5 19.1-2.1 1.3-7.2-0.1-9.6-3.5z"/></svg>