<svg id="visual" viewBox="0 0 960 540" width="960" height="540" xmlns="http://www.w3.org/2000/svg" xmlns:xlink="http://www.w3.org/1999/xlink" version="1.1"><path d="M0 150L137 187L274 159L411 153L549 164L686 198L823 161L960 177L960 0L823 0L686 0L549 0L411 0L274 0L137 0L0 0Z" fill="#cea86a"></path><path d="M0 164L137 153L274 139L411 106L549 132L686 167L823 178L960 181L960 0L823 0L686 0L549 0L411 0L274 0L137 0L0 0Z" fill="#b69267"></path><path d="M0 110L137 96L274 110L411 93L549 111L686 113L823 99L960 118L960 0L823 0L686 0L549 0L411 0L274 0L137 0L0 0Z" fill="#9b7e64"></path><path d="M0 55L137 91L274 85L411 103L549 103L686 63L823 75L960 80L960 0L823 0L686 0L549 0L411 0L274 0L137 0L0 0Z" fill="#7e6b5f"></path><path d="M0 55L137 44L274 28L411 58L549 61L686 33L823 43L960 43L960 0L823 0L686 0L549 0L411 0L274 0L137 0L0 0Z" fill="#5e5a58"></path></svg>