<svg version="1.2" xmlns="http://www.w3.org/2000/svg" viewBox="0 0 2160 493" width="2160" height="493"><defs><clipPath clipPathUnits="userSpaceOnUse" id="cp1"><path d="m0-8.67h2160v507.55h-2160z"/></clipPath></defs><style>.a{fill:#7ce5db}.b{fill:#65dbd2}.c{fill:#2dbaba}.d{fill:#3cc6c2}.e{fill:#4accc6}</style><g clip-path="url(#cp1)"><path class="a" d="m2213.1 390.5c-206-51.6-612.3-112-1298.5-58.4-566.6 44.2-862.2 73.7-1015.3 91.9v65.9c255.7-27.8 762.4-71.3 1120.3-26.9 360.2 44.6 915.1 16.5 1193.5-2.4z"/><path class="b" d="m2213.1 348.5c-310.5-67.4-916-160.7-1642.4-76.6l-671.4 83v148.9c125.3-12.7 380-45.3 763.6-115.6 280.1-51.3 1165.3-3.1 1550.2 66.3z"/><path class="c" d="m2213.1 29.5l-53.1-3.3c0 0-235.4-14.8-697.5 19.8-462.2 34.7-1048.4-19.8-1048.4-19.8-20.9 10.1-380.6-22.3-514.8-34.9v245.9c76.7-3.6 267.8-21.6 737.3-94.7 541.1-84.1 1246-3.2 1576.5 44.7z"/><path class="d" d="m2213.1 187c-325.1-65.6-928.5-149.4-1647.9-69.2l-665.9 79.3v103.3c125.9-48 352.2-108.2 653.2-82.2 370.8 32.1 1251.7 39.2 1660.6 84.4z"/><path class="e" d="m2213.1 225.6c-88.2 9.7-225.9 11.2-416.5-24.9-366.3-69.3-496.5 5-1151.7-19.8-349.8-13.2-593.9 13.8-745.6 41.8v134.9c140.6-4.1 430.9 18.7 896.1-85.1 476.7-106.3 1146.8 43.9 1417.7 114.9z"/></g></svg>