<svg version="1.2" xmlns="http://www.w3.org/2000/svg" viewBox="0 0 800 800" width="800" height="800">
	<title>wineGlass-ai</title>
	<style>
		.s0 { fill: #cea86a } 
		.s1 { fill: #ffffff } 
	</style>
	<g id="Objects">
		<g id="&lt;Group&gt;">
			<path id="&lt;Compound Path&gt;" fill-rule="evenodd" class="s0" d="m644.7 566l-144.6 51.6-1.3-3.7c-1-3-3.5-9.9 53.6-31.8q0.8-2.3 2.4-4.4c-14.7-55.3-24.9-83.9-47.8-134.7-22.3 5.5-42.1 2.3-58.6-9.3-27.4-19.4-41.3-58.9-48.4-94.5-7.1 35.6-21 75.1-48.4 94.5-16.4 11.6-36.3 14.8-58.6 9.3-22.9 50.8-33.1 79.4-47.8 134.7q1.6 2.1 2.4 4.4c57.1 21.9 54.6 28.8 53.6 31.8l-1.3 3.7-144.6-51.6 1.4-3.7c1.3-3.8 6.1-3.8 7.6-3.8 8.8 0 29.3 5 54 13.1q2.1-1.3 4.7-1.9c23.6-52 33.9-80.6 48.3-134.4-20.7-10-34-24.9-39.4-44.4-18-65.4 58.8-159.7 62.1-163.7l3-3.7 103 36.8 103-36.8 3 3.7c3.3 4 80.1 98.5 62.1 163.7-5.4 19.5-18.6 34.4-39.4 44.4 14.5 53.8 24.8 82.4 48.4 134.4 1.7 0.4 3.3 1.1 4.7 1.9 24.6-8.1 45.1-13.1 53.9-13.1 1.5 0 6.3 0 7.7 3.8zm-237.8-284.7c0.5 7.8 1.3 18.6 2.9 30.9 12.5-12.1 42-34.4 75.2-16.8 32 17 44.9 11.3 52.4 6.2-14.4-28.9-32.5-53.4-39-61.8l-91.1 32.5c-0.1 2.3-0.2 5.3-0.4 9zm-13.8-0.1c-0.2-3.6-0.3-6.6-0.4-8.9l-91.1-32.5c-5.7 7.5-20.8 27.8-34.2 52.6 16.4-4.7 44.3-8.1 77 13.5 27.2 18 40.5 8.8 46.8-1.8 0.9-9 1.5-16.8 1.9-22.9z"/>
			<path id="&lt;Path&gt;" class="s1" d="m364.6 232.3c1.5 1.6 3.5 2.3 5.5 2.3 2.1 0 4.1-0.8 5.6-2.3 3.1-3.1 3.1-8 0-11.1l-18.7-18.7c-3.1-3.1-8-3.1-11.1 0-3.1 3-3.1 8 0 11.1z"/>
			<path id="&lt;Path&gt;" class="s1" d="m381.5 217.8c0.9 3.5 4.1 5.9 7.6 5.9q1 0 2-0.3c4.2-1.1 6.7-5.4 5.6-9.6l-6.9-25.6c-1.1-4.2-5.4-6.7-9.6-5.6-4.2 1.2-6.7 5.5-5.6 9.7z"/>
			<path id="&lt;Path&gt;" class="s1" d="m408.9 223.4q1 0.3 2 0.3c3.5 0 6.7-2.4 7.7-5.9l6.8-25.5c1.1-4.2-1.4-8.5-5.6-9.7-4.1-1.1-8.5 1.4-9.6 5.6l-6.9 25.6c-1.1 4.2 1.4 8.5 5.6 9.6z"/>
			<path id="&lt;Path&gt;" class="s1" d="m424.3 232.3c1.6 1.5 3.6 2.3 5.6 2.3 2 0 4-0.8 5.6-2.3l18.7-18.7c3-3.1 3-8.1 0-11.2-3.1-3.1-8.1-3-11.2 0l-18.7 18.7c-3.1 3.1-3.1 8.1 0 11.2z"/>
		</g>
	</g>
</svg>