<svg version="1.2" xmlns="http://www.w3.org/2000/svg" viewBox="0 0 837 943" width="837" height="943"><defs><clipPath clipPathUnits="userSpaceOnUse" id="cp1"><path d="m-3.18-43.84h917.13v1070.36h-917.13z"/></clipPath></defs><style>.a{fill:#e2cba6}.b{fill:#fff}.c{fill:#cea86a}</style><g clip-path="url(#cp1)"><path class="a" d="m112.3 117.1c-20.7 12.4-27.9 39.2-15.5 59.9 12.5 20.7 39.3 27.9 60 15.5 20.8-12.5 28-39.2 15.5-60-12.1-20.7-39.2-27.9-60-15.4z"/><path class="b" d="m248.9 364.7c0-34.1 27.7-61.8 61.9-61.8 34.2 0 61.9 27.7 61.9 61.8 0 34.1-27.7 61.8-61.9 61.8-34.2 0-61.9-27.7-61.9-61.8z"/><path class="c" d="m385.6 7.8c-15.5 12-17.8 34.3-5.7 49.7 12.1 15.5 34.3 17.8 49.8 5.7 15.5-12.1 17.8-34.3 5.7-49.8-12.5-15.4-34.7-18-49.8-5.6z"/><path class="a" d="m797.3 384.3c21.9-0.4 39.7-18.5 39.3-40.3-0.4-21.9-18.5-39.6-40.4-39.2-21.9 0.4-39.6 18.4-39.3 40.3 0 22.2 18.2 40 40.4 39.2z"/><path class="b" d="m41.4 468.3c21.8-0.3 39.6-18.4 39.2-40.3-0.4-21.8-18.5-39.6-40.4-39.2-21.9 0.8-39.6 18.9-39.2 40.7 0.4 21.9 18.5 39.6 40.4 38.8z"/><path class="c" d="m456.1 603.7c46.8 12.4 95.1-15.5 108-62.2 12.8-46.8-15.1-95-61.9-107.4-46.8-12.5-95.1 15.4-108 62.1-12.8 46.8 15.1 95 61.9 107.5z"/><path class="b" d="m689.4 566c18.1 4.9 36.6-6.1 41.5-23.8 4.9-18.1-5.7-36.5-23.8-41.1-18.1-4.9-36.6 6.1-41.5 23.8-4.9 17.7 5.7 36.2 23.8 41.1z"/><path class="c" d="m733.9 175.5c10.6 1.1 20.4-6.4 21.5-17 1.2-10.5-6.4-20.3-17-21.4-10.5-1.2-20.3 6.4-21.5 16.9-1.1 10.6 6.5 20.4 17 21.5z"/><path class="a" d="m765.2 742c-13.2-17.7-38.1-21.5-55.8-8.3-17.8 13.2-21.5 38-8.3 55.4 13.2 17.7 38.1 21.5 55.8 8.3 17.8-12.8 21.2-37.7 8.3-55.4z"/><path class="c" d="m631.3 914.6c-5.3-9.4-17-12.8-26.5-7.6-9.4 5.3-12.8 17-7.5 26.1 5.3 9.4 17 12.8 26.4 7.5 9.4-4.9 12.8-16.6 7.6-26z"/></g></svg>