<svg version="1.2" xmlns="http://www.w3.org/2000/svg" viewBox="0 0 807 281" width="807" height="281"><defs><clipPath clipPathUnits="userSpaceOnUse" id="cp1"><path d="m-221.23-64h1372.88v386.88h-1372.88z"/></clipPath></defs><style>.a{fill:#cea86a}.b{fill:#fff}</style><g clip-path="url(#cp1)"><path class="a" d="m539 123.6c80.1-0.4 80.1-123.1 0-123.4-80.1 0.4-80.1 123 0 123.4z"/><path class="b" d="m542.5 100.4c-1.9-0.2-3.8-1.2-5.8-0.4-16.8-2.7-26.8-17-36.8-28.4-14 21.7 22.9 46.2 41.9 38.1 9.2 1.6 10.3-10 0.7-9.3z"/><path class="b" d="m566.3 105.8c0 0-6.1 5.2-9 4.7-2.8-0.5-6.3-6.1-4-7.3 2.2-1.2 9.4-4.2 13 2.6z"/><path class="b" d="m570.9 100.7c-1.2 1.7-5.6 2.6-4.7-0.9 0.8-0.4 3.4-1.5 4.7 0.9z"/><path class="a" d="m384.8 108.7c60.8-0.3 60.8-93.3 0-93.6-60.8 0.3-60.8 93.3 0 93.6z"/><path class="b" d="m387.5 91.1c-1.5-0.1-2.9-0.9-4.5-0.3-12.7-2-20.3-12.9-27.8-21.5-10.7 16.4 17.3 35 31.7 28.8 7 1.2 7.8-7.5 0.6-7z"/><path class="b" d="m405.5 95.2c0 0-4.6 3.9-6.8 3.6-2.1-0.4-4.8-4.7-3.1-5.6 1.7-0.9 7.2-3.1 9.9 2z"/><path class="b" d="m409 91.3c-0.7 1.3-4.4 1.9-3.6-0.7 0.7-0.3 2.6-1.1 3.6 0.7z"/><path class="a" d="m616.7 215.4c44.1 120.7 223.5 57.8 183.6-64.4-44.1-120.8-223.5-57.8-183.6 64.4z"/><path class="b" d="m653.1 208.6c-0.8-3-0.2-6.5-2.5-9-4.7-27.3 11.2-49 23.1-70.3-39.6-10-56.8 58.7-34.8 83 2.9 14.9 19.9 10.8 14.2-3.7z"/><path class="b" d="m657.5 247.2c0 0-11-6.5-11.7-11-0.7-4.5 5.8-12.7 8.7-10 2.9 2.8 11.1 12.2 3 21z"/><path class="a" d="m5.2 200.3c29.4 84 156.4 39.4 127.7-44.8-29.5-83.9-156.4-39.4-127.7 44.8z"/><path class="b" d="m30.5 195.6c-0.6-2.1-0.1-4.5-1.8-6.3-3.3-18.6 7.9-34.3 16.1-48.9-27.5-7.1-39.4 40.7-24.2 57.8 1.7 10.3 14.1 7.2 9.9-2.6z"/><path class="b" d="m33.5 222.4c0 0-7.6-4.4-8.1-7.6-0.5-3.1 4-8.8 6.1-6.9 2 1.9 7.7 8.4 2 14.5z"/><path class="b" d="m40.5 225.5c-2.3-0.7-4.7-4.9-0.8-5.3 0.7 0.7 2.8 3.1 0.8 5.3z"/><path class="a" d="m193.2 193.3c19 57.7 108.4 26.3 87.8-30.8-19-57.6-108.5-26.2-87.8 30.8z"/><path class="b" d="m210.6 190.1c-0.4-1.5-0.1-3.1-1.2-4.3-2.3-12.9 5.4-23.6 11-33.6-18.9-4.8-27.1 28-16.6 39.7 1.2 7 9.7 4.9 6.8-1.8z"/><path class="b" d="m212.7 208.5c0 0-5.3-3.1-5.6-5.2-0.4-2.2 2.8-6.1 4.1-4.8 1.4 1.3 5.4 5.8 1.5 10z"/><path class="b" d="m217.4 210.6c-1.4-0.3-3.2-3.5-0.5-3.6 0.5 0.5 1.9 2.1 0.5 3.6z"/><path class="a" d="m357.7 195.3c23.2 32 72.5-5.5 48.3-36.8-23.2-32-72.5 5.6-48.3 36.8z"/><path class="b" d="m367.8 190.8c-0.5-0.8-0.7-1.9-1.6-2.4-3.9-7.5-1.3-15.8 0.2-23.1-12.7 0.8-11.3 22.9-2.4 28 2.1 4.1 6.9 1.1 3.8-2.5z"/><path class="b" d="m372.8 201.9c-3-0.1-7.4-3.9-2.9-6 1.1 0.6 4.5 2.5 2.9 6z"/><path class="b" d="m376.2 202.2c-0.9 0.2-2.7-1.7-1.1-2.2 0.4 0.2 1.6 1 1.1 2.2z"/><path class="a" d="m725 2.5c-23-12.3-41.6 24.3-18.3 35.9 22.9 12.3 41.6-24.3 18.3-35.9z"/><path class="b" d="m720.5 8.7c0.5 0.3 0.9 0.9 1.6 1 4.5 3.3 5.3 8.9 6.5 13.8 7.3-4.2 0.2-16.9-6.5-17.4-2.5-1.9-4.5 1.4-1.6 2.6z"/><path class="b" d="m714.4 3.6c1.5-1 5.6 0.3 3.4 2.7-0.8 0-3.4-0.3-3.4-2.7z"/><path class="b" d="m712.3 4.3c0.4-0.3 2.1 0.3 1.2 1-0.3 0-1.2-0.1-1.2-1z"/><path class="a" d="m262.6 31.8c-38.2-39.6-99.1 21.7-59.8 60.2 38.2 39.6 99.1-21.7 59.8-60.2z"/><path class="b" d="m249.6 41.4c0.9 1 1.3 2.5 2.7 3 6.9 9.6 4.8 21.5 4.2 31.9 17.3-3.6 11.2-33.7-2-39.1-3.8-5.3-9.9-0.2-4.9 4.2z"/><path class="b" d="m240.7 27.1c0 0 5.5 0.5 6.6 2.1 1.1 1.6 0.1 6.1-1.5 5.5-1.7-0.5-6.7-2.6-5.1-7.6z"/><path class="b" d="m236 27.3c1.2-0.4 4 1.7 1.8 2.8-0.6-0.2-2.4-1-1.8-2.8z"/><path class="a" d="m108.8 45.2c-21.1-21.9-54.8 12.1-33.1 33.4 21.2 21.9 54.9-12.1 33.1-33.4z"/><path class="b" d="m101.6 50.6c0.5 0.5 0.8 1.3 1.5 1.6 3.8 5.3 2.7 11.9 2.3 17.7 9.6-2 6.2-18.7-1.1-21.7-2-2.9-5.4-0.1-2.7 2.4z"/><path class="b" d="m96.7 42.6c2.1-0.4 6.1 2.3 2.8 4.3-0.9-0.3-3.7-1.5-2.8-4.3z"/><path class="b" d="m94.1 42.8c0.6-0.3 2.2 1 1 1.5-0.3-0.1-1.3-0.5-1-1.5z"/></g></svg>