<svg version="1.2" xmlns="http://www.w3.org/2000/svg" viewBox="0 0 197 195" width="197" height="195"><defs><clipPath clipPathUnits="userSpaceOnUse" id="cp1"><path d="m-831.23-150h1372.88v386.88h-1372.88z"/></clipPath></defs><style>.a{fill:#cea86a}.b{fill:#fff}</style><g clip-path="url(#cp1)"><path class="a" d="m6.7 129.4c44.1 120.7 223.5 57.8 183.6-64.4-44.1-120.8-223.5-57.8-183.6 64.4z"/><path class="b" d="m43.1 122.6c-0.8-3-0.2-6.5-2.5-9-4.7-27.3 11.2-49 23.1-70.3-39.6-10-56.8 58.7-34.8 83 2.9 14.9 19.9 10.8 14.2-3.7z"/><path class="b" d="m47.5 161.2c0 0-11-6.5-11.7-11-0.7-4.5 5.8-12.7 8.7-10 2.9 2.8 11.1 12.2 3 21z"/></g></svg>