<svg version="1.2" xmlns="http://www.w3.org/2000/svg" viewBox="0 0 56 57" width="56" height="57"><defs><clipPath clipPathUnits="userSpaceOnUse" id="cp1"><path d="m-78.6-43.91h939.62v264.79h-939.62z"/></clipPath></defs><style>.a{fill:#cea86a}.b{fill:#fff}</style><g clip-path="url(#cp1)"><path class="a" d="m47.6 9.1c-24.7-25.7-64.2 14.1-38.7 39 24.8 25.7 64.2-14.1 38.7-39z"/><path class="b" d="m39.2 15.3c0.6 0.7 0.9 1.6 1.8 2 4.4 6.2 3.1 13.9 2.7 20.7 11.2-2.4 7.2-21.9-1.3-25.4-2.4-3.4-6.4-0.1-3.2 2.7z"/><path class="b" d="m33.4 6.1c2.5-0.5 7.2 2.6 3.3 4.9-1-0.3-4.3-1.7-3.3-4.9z"/><path class="b" d="m30.4 6.2c0.7-0.3 2.6 1.1 1.2 1.8-0.4-0.2-1.6-0.7-1.2-1.8z"/></g></svg>