<svg version="1.2" xmlns="http://www.w3.org/2000/svg" viewBox="0 0 101 101" width="101" height="101"><defs><clipPath clipPathUnits="userSpaceOnUse" id="cp1"><path d="m-220.6-21.91h939.62v264.79h-939.62z"/></clipPath></defs><style>.a{fill:#cea86a}.b{fill:#fff}</style><g clip-path="url(#cp1)"><path class="a" d="m85.7 15.4c-44.7-46.4-116 25.4-69.9 70.4 44.7 46.4 116-25.4 69.9-70.4z"/><path class="b" d="m70.5 26.6c1.1 1.2 1.6 2.9 3.2 3.6 8.1 11.2 5.6 25.1 4.8 37.3 20.4-4.3 13.2-39.5-2.3-45.8-4.4-6.2-11.5-0.2-5.7 4.9z"/><path class="b" d="m60.1 9.9c0 0 6.4 0.5 7.7 2.4 1.3 1.9 0.2 7.1-1.8 6.5-1.9-0.6-7.8-3.1-5.9-8.9z"/><path class="b" d="m54.5 10.1c1.5-0.4 4.7 1.9 2.2 3.2-0.7-0.2-2.8-1.1-2.2-3.2z"/></g></svg>