<svg version="1.2" xmlns="http://www.w3.org/2000/svg" viewBox="0 0 122 124" width="122" height="124"><defs><clipPath clipPathUnits="userSpaceOnUse" id="cp1"><path d="m-699.23-64h1372.88v386.88h-1372.88z"/></clipPath></defs><style>.a{fill:#cea86a}.b{fill:#fff}</style><g clip-path="url(#cp1)"><path class="a" d="m61 123.6c80.1-0.4 80.1-123.1 0-123.4-80.1 0.4-80.1 123 0 123.4z"/><path class="b" d="m64.5 100.4c-1.9-0.2-3.8-1.2-5.8-0.4-16.8-2.7-26.8-17-36.8-28.4-14 21.7 22.9 46.2 41.9 38.1 9.2 1.6 10.3-10 0.7-9.3z"/><path class="b" d="m88.3 105.8c0 0-6.1 5.2-9 4.7-2.8-0.5-6.3-6.1-4-7.3 2.2-1.2 9.4-4.2 13 2.6z"/><path class="b" d="m92.9 100.7c-1.2 1.7-5.6 2.6-4.7-0.9 0.8-0.4 3.4-1.5 4.7 0.9z"/></g></svg>