<svg version="1.2" xmlns="http://www.w3.org/2000/svg" viewBox="0 0 767 131" width="767" height="131"><style>.a{fill:#3e3e3e}</style><path class="a" d="m0 28.6c0 0 106-5.6 171-2.5 65 3.1 65 3.1 65 3.1 0 0-201 4.7-236-0.6z"/><path class="a" d="m91 86.3c0 0 191.8-7.8 309.4-3.5 117.6 4.3 117.6 4.3 117.6 4.3 0 0-363.7 6.5-427-0.8z"/><path class="a" d="m288 3.6c0 0 106-5.6 171-2.5 65 3.1 65 3.1 65 3.1 0 0-201 4.7-236-0.6z"/><path class="a" d="m379 45.1c0 0 175.2-7.2 282.6-3.2 107.4 4 107.4 4 107.4 4 0 0-332.2 6-390-0.8z"/><path class="a" d="m463 125.4c0 0 65.6-4.7 105.8-2.1 40.2 2.6 40.2 2.6 40.2 2.6 0 0-124.3 3.9-146-0.5z"/><path class="a" d="m160 127.6c0 0 106-5.6 171-2.5 65 3.1 65 3.1 65 3.1 0 0-201 4.7-236-0.6z"/></svg>