<svg version="1.2" xmlns="http://www.w3.org/2000/svg" viewBox="0 0 147 148" width="147" height="148"><defs><clipPath clipPathUnits="userSpaceOnUse" id="cp1"><path d="m-300.11-617.01h815.87v1106.3h-815.87z"/></clipPath></defs><style>.a{fill:#fff}</style><g clip-path="url(#cp1)"><path fill-rule="evenodd" class="a" d="m77 0.6q1.8 0.1 3.6 0.3 1.8 0.1 3.5 0.4 1.8 0.3 3.6 0.6 1.8 0.4 3.5 0.8 1.8 0.5 3.5 1 1.7 0.5 3.4 1.1 1.7 0.6 3.4 1.3 1.6 0.7 3.2 1.5 1.7 0.7 3.3 1.6 1.5 0.8 3.1 1.8 1.5 0.9 3 1.9 1.5 1 3 2.1 1.4 1 2.8 2.2 1.4 1.1 2.7 2.3 1.4 1.2 2.6 2.5 1.3 1.3 2.5 2.6 1.2 1.4 2.4 2.7 1.1 1.4 2.2 2.9 1.1 1.4 2.1 2.9 1 1.5 1.9 3.1 0.9 1.5 1.8 3.1 0.8 1.6 1.6 3.2 0.8 1.6 1.5 3.3 0.6 1.7 1.3 3.4 0.6 1.6 1.1 3.4 0.5 1.7 0.9 3.4 0.5 1.8 0.8 3.5 0.4 1.8 0.7 3.6 0.2 1.8 0.4 3.6 0.2 1.8 0.3 3.6 0.1 1.8 0.1 3.6 0 1.8-0.1 3.6-0.1 1.8-0.3 3.5-0.2 1.8-0.4 3.6-0.3 1.8-0.6 3.6-0.4 1.7-0.8 3.5-0.5 1.7-1 3.4-0.5 1.8-1.1 3.5-0.6 1.7-1.3 3.3-0.7 1.7-1.5 3.3-0.8 1.6-1.6 3.2-0.9 1.6-1.8 3.2-0.9 1.5-1.9 3-1 1.5-2.1 2.9-1.1 1.5-2.2 2.9-1.1 1.4-2.3 2.7-1.3 1.3-2.5 2.6-1.3 1.3-2.6 2.5-1.4 1.2-2.8 2.4-1.4 1.1-2.8 2.2-1.5 1-3 2-1.4 1-3 2-1.5 0.9-3.1 1.7-1.6 0.9-3.2 1.7-1.7 0.7-3.3 1.4-1.7 0.7-3.4 1.3-1.7 0.6-3.4 1.1-1.7 0.6-3.5 1-1.7 0.4-3.5 0.8-1.8 0.3-3.6 0.6-1.7 0.3-3.5 0.4-1.8 0.2-3.6 0.3-1.8 0.1-3.6 0.1-1.8 0-3.6-0.1-1.8-0.1-3.6-0.3-1.8-0.1-3.6-0.4-1.8-0.3-3.5-0.6-1.8-0.4-3.5-0.8-1.8-0.4-3.5-1-1.7-0.5-3.4-1.1-1.7-0.6-3.4-1.3-1.7-0.7-3.3-1.4-1.6-0.8-3.2-1.7-1.6-0.8-3.1-1.7-1.6-1-3.1-2-1.5-1-2.9-2-1.5-1.1-2.9-2.2-1.4-1.2-2.7-2.4-1.3-1.2-2.6-2.5-1.3-1.3-2.5-2.6-1.2-1.3-2.3-2.7-1.2-1.4-2.3-2.9-1-1.4-2-2.9-1-1.5-2-3-0.9-1.6-1.7-3.2-0.9-1.6-1.7-3.2-0.7-1.6-1.4-3.3-0.7-1.6-1.3-3.3-0.6-1.7-1.1-3.5-0.6-1.7-1-3.4-0.4-1.8-0.8-3.5-0.3-1.8-0.6-3.6-0.3-1.8-0.4-3.6-0.2-1.8-0.3-3.5-0.1-1.8-0.1-3.6 0-1.8 0.1-3.6 0.1-1.8 0.3-3.6 0.1-1.8 0.4-3.6 0.3-1.8 0.6-3.6 0.4-1.7 0.8-3.5 0.4-1.7 1-3.4 0.5-1.8 1.1-3.5 0.6-1.7 1.3-3.3 0.7-1.7 1.4-3.3 0.8-1.6 1.7-3.2 0.8-1.6 1.7-3.2 1-1.5 2-3 1-1.5 2-2.9 1.1-1.5 2.3-2.9 1.1-1.4 2.3-2.7 1.2-1.3 2.5-2.6 1.3-1.3 2.6-2.5 1.3-1.2 2.7-2.3 1.4-1.2 2.9-2.3 1.4-1 2.9-2 1.5-1 3.1-2 1.5-0.9 3.1-1.7 1.6-0.9 3.2-1.7 1.6-0.7 3.3-1.4 1.7-0.7 3.4-1.3 1.7-0.6 3.4-1.1 1.7-0.6 3.5-1 1.7-0.4 3.5-0.8 1.7-0.3 3.5-0.6 1.8-0.3 3.6-0.4 1.8-0.2 3.6-0.3 1.8-0.1 3.6-0.1 1.8 0 3.6 0.1zm-6.9 5.6q-1.7 0.1-3.4 0.3-1.6 0.1-3.3 0.4-1.6 0.2-3.2 0.5-1.7 0.4-3.3 0.8-1.6 0.4-3.2 0.8-1.6 0.5-3.1 1.1-1.6 0.5-3.1 1.2-1.6 0.6-3.1 1.3-1.5 0.7-3 1.5-1.4 0.8-2.8 1.7-1.5 0.8-2.9 1.7-1.3 1-2.7 2-1.3 0.9-2.6 2-1.3 1.1-2.5 2.2-1.2 1.1-2.4 2.3-1.2 1.1-2.3 2.4-1.1 1.2-2.2 2.5-1 1.3-2 2.6-1 1.3-2 2.7-0.9 1.4-1.7 2.8-0.9 1.5-1.7 2.9-0.8 1.5-1.5 3-0.7 1.5-1.3 3-0.6 1.6-1.2 3.1-0.6 1.6-1.1 3.2-0.4 1.6-0.8 3.2-0.4 1.6-0.8 3.2-0.3 1.7-0.5 3.3-0.3 1.7-0.4 3.3-0.2 1.7-0.3 3.3-0.1 1.7-0.1 3.4 0 1.6 0.1 3.3 0.1 1.6 0.3 3.3 0.1 1.6 0.4 3.3 0.2 1.6 0.5 3.3 0.4 1.6 0.8 3.2 0.4 1.6 0.8 3.2 0.5 1.6 1.1 3.2 0.6 1.5 1.2 3.1 0.6 1.5 1.3 3 0.7 1.5 1.5 3 0.8 1.4 1.7 2.9 0.8 1.4 1.7 2.8 1 1.4 2 2.7 1 1.3 2 2.6 1.1 1.3 2.2 2.5 1.1 1.3 2.3 2.4 1.2 1.2 2.4 2.3 1.2 1.1 2.5 2.2 1.3 1.1 2.6 2 1.4 1 2.7 2 1.4 0.9 2.9 1.7 1.4 0.9 2.8 1.7 1.5 0.8 3 1.5 1.5 0.7 3.1 1.3 1.5 0.7 3.1 1.2 1.5 0.6 3.1 1.1 1.6 0.4 3.2 0.8 1.6 0.5 3.3 0.8 1.6 0.3 3.2 0.5 1.7 0.3 3.3 0.4 1.7 0.2 3.4 0.3 1.6 0.1 3.3 0.1 1.6 0 3.3-0.1 1.7-0.1 3.3-0.3 1.7-0.1 3.3-0.4 1.7-0.2 3.3-0.5 1.6-0.3 3.2-0.8 1.7-0.4 3.2-0.8 1.6-0.5 3.2-1.1 1.6-0.5 3.1-1.2 1.5-0.6 3-1.3 1.6-0.7 3-1.5 1.5-0.8 2.9-1.7 1.4-0.8 2.8-1.7 1.4-1 2.7-2 1.4-0.9 2.7-2 1.2-1.1 2.5-2.2 1.2-1.1 2.4-2.3 1.2-1.1 2.3-2.4 1.1-1.2 2.2-2.5 1-1.3 2-2.6 1-1.3 1.9-2.7 0.9-1.4 1.8-2.8 0.8-1.5 1.6-2.9 0.8-1.5 1.5-3 0.7-1.5 1.4-3 0.6-1.6 1.2-3.1 0.5-1.6 1-3.2 0.5-1.6 0.9-3.2 0.4-1.6 0.7-3.2 0.4-1.7 0.6-3.3 0.2-1.7 0.4-3.3 0.2-1.7 0.3-3.3 0-1.7 0-3.3 0-1.7 0-3.4-0.1-1.6-0.3-3.3-0.2-1.6-0.4-3.3-0.2-1.6-0.6-3.3-0.3-1.6-0.7-3.2-0.4-1.6-0.9-3.2-0.5-1.6-1-3.2-0.6-1.5-1.2-3.1-0.7-1.5-1.4-3-0.7-1.5-1.5-3-0.8-1.4-1.6-2.9-0.9-1.4-1.8-2.8-0.9-1.4-1.9-2.7-1-1.3-2-2.6-1.1-1.3-2.2-2.5-1.1-1.3-2.3-2.4-1.2-1.2-2.4-2.3-1.3-1.1-2.5-2.2-1.3-1.1-2.7-2-1.3-1-2.7-2-1.4-0.9-2.8-1.7-1.4-0.9-2.9-1.7-1.4-0.8-3-1.5-1.5-0.7-3-1.3-1.5-0.7-3.1-1.2-1.6-0.6-3.2-1.1-1.5-0.4-3.2-0.8-1.6-0.4-3.2-0.8-1.6-0.3-3.3-0.5-1.6-0.3-3.3-0.4-1.6-0.2-3.3-0.3-1.7-0.1-3.3-0.1-1.7 0-3.3 0.1z"/><path class="a" d="m16.7 70c0 0-0.5-52.9 58.4-57.6q-9.4 4.5-18 10.5-8.6 6-16 13.4-7.4 7.3-13.6 15.8-6.1 8.5-10.8 17.9z"/><path class="a" d="m122.1 94.8q0 0.9-0.1 1.7-0.2 0.9-0.6 1.7-0.3 0.9-0.8 1.6-0.5 0.7-1.1 1.4-0.6 0.6-1.4 1.1-0.7 0.5-1.5 0.8-0.9 0.4-1.7 0.5-0.9 0.2-1.8 0.2-0.9 0-1.8-0.2-0.8-0.1-1.7-0.5-0.8-0.3-1.5-0.8-0.8-0.5-1.4-1.1-0.6-0.7-1.1-1.4-0.5-0.7-0.8-1.6-0.4-0.8-0.6-1.7-0.1-0.8-0.1-1.7 0-0.9 0.1-1.8 0.2-0.9 0.6-1.7 0.3-0.8 0.8-1.5 0.5-0.8 1.1-1.4 0.6-0.6 1.4-1.1 0.7-0.5 1.5-0.9 0.9-0.3 1.7-0.5 0.9-0.2 1.8-0.2 0.9 0 1.8 0.2 0.8 0.2 1.7 0.5 0.8 0.4 1.5 0.9 0.8 0.5 1.4 1.1 0.6 0.6 1.1 1.4 0.5 0.7 0.8 1.5 0.4 0.8 0.6 1.7 0.1 0.9 0.1 1.8z"/><path class="a" d="m112.5 75.6c0-3.1 2.5-5.6 5.6-5.6 3.1 0 5.6 2.5 5.6 5.6 0 3.1-2.5 5.6-5.6 5.6-3.1 0-5.6-2.5-5.6-5.6z"/></g></svg>