<svg version="1.2" xmlns="http://www.w3.org/2000/svg" viewBox="0 0 56 56" width="56" height="56"><defs><clipPath clipPathUnits="userSpaceOnUse" id="cp1"><path d="m-570.11-881.01h815.87v1106.3h-815.87z"/></clipPath></defs><style>.a{fill:#fff}</style><g clip-path="url(#cp1)"><path fill-rule="evenodd" class="a" d="m30.9 0.7q1.4 0.1 2.7 0.4 1.3 0.3 2.6 0.7 1.3 0.3 2.5 0.9 1.3 0.5 2.4 1.1 1.2 0.6 2.4 1.4 1.1 0.7 2.1 1.6 1 0.8 2 1.8 0.9 0.9 1.8 2 0.8 1 1.6 2.1 0.7 1.1 1.4 2.3 0.6 1.2 1.1 2.5 0.5 1.2 0.9 2.5 0.4 1.3 0.7 2.6 0.2 1.3 0.4 2.6 0.1 1.4 0.1 2.7 0 1.4-0.1 2.7-0.1 1.3-0.4 2.6-0.3 1.4-0.7 2.7-0.4 1.2-0.9 2.5-0.5 1.2-1.1 2.4-0.6 1.2-1.4 2.3-0.7 1.1-1.6 2.2-0.8 1-1.8 1.9-0.9 1-2 1.9-1 0.8-2.1 1.5-1.2 0.8-2.3 1.4-1.2 0.7-2.5 1.2-1.2 0.5-2.5 0.9-1.3 0.4-2.6 0.6-1.3 0.3-2.7 0.4-1.3 0.2-2.6 0.2-1.4 0-2.7-0.2-1.4-0.1-2.7-0.4-1.3-0.2-2.6-0.6-1.3-0.4-2.5-0.9-1.3-0.5-2.4-1.2-1.2-0.6-2.3-1.4-1.2-0.7-2.2-1.5-1-0.9-2-1.9-0.9-0.9-1.8-1.9-0.8-1.1-1.6-2.2-0.7-1.1-1.4-2.3-0.6-1.2-1.1-2.4-0.5-1.3-0.9-2.5-0.4-1.3-0.7-2.7-0.2-1.3-0.4-2.6-0.1-1.3-0.1-2.7 0-1.3 0.1-2.7 0.2-1.3 0.4-2.6 0.3-1.3 0.7-2.6 0.4-1.3 0.9-2.6 0.5-1.2 1.1-2.4 0.7-1.2 1.4-2.3 0.8-1.1 1.6-2.1 0.9-1.1 1.8-2 1-1 2-1.8 1-0.9 2.2-1.6 1.1-0.8 2.3-1.4 1.1-0.6 2.4-1.2 1.2-0.5 2.5-0.9 1.3-0.3 2.6-0.6 1.3-0.3 2.7-0.4 1.3-0.1 2.7-0.1 1.3 0 2.6 0.1zm-5.1 2.1q-1.3 0.1-2.5 0.4-1.2 0.2-2.4 0.6-1.2 0.3-2.3 0.8-1.2 0.5-2.2 1-1.1 0.6-2.2 1.3-1 0.7-2 1.5-0.9 0.8-1.8 1.7-0.9 0.8-1.7 1.8-0.8 1-1.4 2-0.7 1-1.3 2.1-0.6 1.1-1.1 2.3-0.5 1.1-0.8 2.3-0.4 1.2-0.6 2.4-0.3 1.2-0.4 2.4-0.1 1.3-0.1 2.5 0 1.3 0.1 2.5 0.1 1.2 0.4 2.4 0.2 1.3 0.6 2.4 0.3 1.2 0.8 2.4 0.5 1.1 1.1 2.2 0.6 1.1 1.3 2.1 0.6 1.1 1.4 2 0.8 1 1.7 1.9 0.9 0.8 1.8 1.6 1 0.8 2 1.5 1.1 0.7 2.2 1.3 1 0.6 2.2 1 1.1 0.5 2.3 0.9 1.2 0.3 2.4 0.6 1.2 0.2 2.5 0.3 1.2 0.2 2.5 0.2 1.2 0 2.4-0.2 1.3-0.1 2.5-0.3 1.2-0.3 2.4-0.6 1.2-0.4 2.3-0.9 1.2-0.4 2.3-1 1.1-0.6 2.1-1.3 1-0.7 2-1.5 0.9-0.8 1.8-1.6 0.9-0.9 1.7-1.9 0.8-0.9 1.5-2 0.6-1 1.2-2.1 0.6-1.1 1.1-2.2 0.5-1.2 0.8-2.4 0.4-1.1 0.6-2.4 0.3-1.2 0.4-2.4 0.1-1.2 0.1-2.5 0-1.2-0.1-2.5-0.1-1.2-0.4-2.4-0.2-1.2-0.6-2.4-0.3-1.2-0.8-2.3-0.5-1.2-1.1-2.3-0.6-1.1-1.2-2.1-0.7-1-1.5-2-0.8-1-1.7-1.8-0.9-0.9-1.8-1.7-1-0.8-2-1.5-1-0.7-2.1-1.3-1.1-0.5-2.3-1-1.1-0.5-2.3-0.8-1.2-0.4-2.4-0.6-1.2-0.3-2.5-0.4-1.2-0.1-2.4-0.1-1.3 0-2.5 0.1z"/><path class="a" d="m7.1 26.5c0 0-0.2-19.7 21.8-21.5q-3.5 1.7-6.7 3.9-3.2 2.3-6 5-2.8 2.8-5 5.9-2.3 3.2-4.1 6.7z"/><path class="a" d="m46.4 35.7q0 0.7-0.2 1.3-0.3 0.6-0.8 1.1-0.4 0.5-1 0.7-0.7 0.3-1.3 0.3-0.7 0-1.3-0.3-0.6-0.2-1.1-0.7-0.5-0.5-0.7-1.1-0.3-0.6-0.3-1.3 0-0.7 0.3-1.3 0.2-0.6 0.7-1.1 0.5-0.4 1.1-0.7 0.6-0.3 1.3-0.3 0.6 0 1.3 0.3 0.6 0.3 1 0.7 0.5 0.5 0.8 1.1 0.2 0.6 0.2 1.3z"/><path class="a" d="m47 28.6q0 0.4-0.1 0.8-0.2 0.3-0.5 0.6-0.3 0.3-0.7 0.5-0.3 0.1-0.8 0.1-0.4 0-0.8-0.1-0.3-0.2-0.6-0.5-0.3-0.3-0.5-0.6-0.1-0.4-0.1-0.8 0-0.5 0.1-0.8 0.2-0.4 0.5-0.7 0.3-0.3 0.6-0.5 0.4-0.1 0.8-0.1 0.5 0 0.8 0.1 0.4 0.2 0.7 0.5 0.3 0.3 0.5 0.7 0.1 0.3 0.1 0.8z"/></g></svg>