<svg version="1.2" xmlns="http://www.w3.org/2000/svg" viewBox="0 0 817 1107" width="817" height="1107"><defs><clipPath clipPathUnits="userSpaceOnUse" id="cp1"><path d="m0.89-0.01h815.87v1106.3h-815.87z"/></clipPath></defs><style>.a{fill:#fff}</style><g clip-path="url(#cp1)"><path fill-rule="evenodd" class="a" d="m95.8 102q1.8 0.1 3.6 0.3 1.8 0.2 3.6 0.4 1.7 0.3 3.5 0.7 1.8 0.3 3.5 0.7 1.8 0.5 3.5 1 1.7 0.5 3.4 1.1 1.7 0.6 3.4 1.3 1.6 0.7 3.3 1.5 1.6 0.8 3.2 1.6 1.6 0.9 3.1 1.8 1.5 0.9 3 1.9 1.5 1 3 2.1 1.4 1.1 2.8 2.2 1.4 1.1 2.7 2.4 1.4 1.2 2.7 2.4 1.2 1.3 2.4 2.6 1.2 1.4 2.4 2.8 1.1 1.4 2.2 2.8 1.1 1.5 2.1 2.9 1 1.5 1.9 3.1 0.9 1.5 1.8 3.1 0.8 1.6 1.6 3.2 0.8 1.7 1.5 3.3 0.7 1.7 1.3 3.4 0.6 1.7 1.1 3.4 0.5 1.7 1 3.5 0.4 1.7 0.7 3.5 0.4 1.7 0.7 3.5 0.2 1.8 0.4 3.6 0.2 1.8 0.3 3.6 0.1 1.8 0.1 3.6 0 1.8-0.1 3.6-0.1 1.8-0.3 3.6-0.2 1.8-0.4 3.5-0.3 1.8-0.6 3.6-0.4 1.8-0.8 3.5-0.5 1.7-1 3.5-0.5 1.7-1.1 3.4-0.6 1.7-1.3 3.3-0.7 1.7-1.5 3.3-0.7 1.7-1.6 3.3-0.8 1.5-1.8 3.1-0.9 1.5-1.9 3-1 1.5-2.1 3-1 1.4-2.2 2.8-1.1 1.4-2.3 2.7-1.2 1.4-2.5 2.6-1.3 1.3-2.6 2.5-1.4 1.2-2.8 2.4-1.3 1.1-2.8 2.2-1.4 1.1-2.9 2.1-1.5 1-3.1 1.9-1.5 0.9-3.1 1.8-1.6 0.8-3.2 1.6-1.7 0.8-3.3 1.4-1.7 0.7-3.4 1.3-1.7 0.6-3.4 1.2-1.7 0.5-3.5 0.9-1.7 0.5-3.5 0.8-1.8 0.4-3.5 0.6-1.8 0.3-3.6 0.5-1.8 0.1-3.6 0.2-1.8 0.1-3.6 0.1-1.8 0-3.6-0.1-1.8-0.1-3.6-0.2-1.8-0.2-3.6-0.5-1.8-0.2-3.5-0.6-1.8-0.3-3.5-0.8-1.8-0.4-3.5-0.9-1.7-0.6-3.4-1.2-1.7-0.6-3.4-1.3-1.7-0.6-3.3-1.4-1.6-0.8-3.2-1.6-1.6-0.9-3.1-1.8-1.6-0.9-3.1-1.9-1.5-1-2.9-2.1-1.5-1.1-2.9-2.2-1.4-1.2-2.7-2.4-1.3-1.2-2.6-2.5-1.3-1.2-2.5-2.6-1.2-1.3-2.3-2.7-1.2-1.4-2.2-2.8-1.1-1.5-2.1-3-1-1.5-1.9-3-1-1.6-1.8-3.1-0.9-1.6-1.6-3.3-0.8-1.6-1.5-3.3-0.7-1.6-1.3-3.3-0.6-1.7-1.1-3.4-0.5-1.8-1-3.5-0.4-1.7-0.8-3.5-0.3-1.8-0.6-3.6-0.3-1.7-0.4-3.5-0.2-1.8-0.3-3.6-0.1-1.8-0.1-3.6 0-1.8 0.1-3.6 0.1-1.8 0.3-3.6 0.1-1.8 0.4-3.6 0.3-1.8 0.6-3.5 0.4-1.8 0.8-3.5 0.5-1.8 1-3.5 0.5-1.7 1.1-3.4 0.6-1.7 1.3-3.4 0.7-1.7 1.5-3.3 0.7-1.6 1.6-3.2 0.8-1.6 1.8-3.1 0.9-1.6 1.9-3.1 1-1.5 2.1-2.9 1-1.5 2.2-2.9 1.1-1.3 2.3-2.7 1.2-1.3 2.5-2.6 1.3-1.3 2.6-2.5 1.3-1.2 2.7-2.3 1.4-1.2 2.9-2.2 1.4-1.1 2.9-2.1 1.5-1 3.1-1.9 1.5-1 3.1-1.8 1.6-0.9 3.2-1.6 1.6-0.8 3.3-1.5 1.7-0.7 3.4-1.3 1.7-0.6 3.4-1.1 1.7-0.5 3.5-1 1.7-0.4 3.5-0.8 1.7-0.3 3.5-0.6 1.8-0.2 3.6-0.4 1.8-0.2 3.6-0.3 1.8-0.1 3.6-0.1 1.8 0 3.6 0.1zm-6.9 5.6q-1.7 0.1-3.3 0.3-1.7 0.1-3.3 0.4-1.7 0.2-3.3 0.6-1.7 0.3-3.3 0.7-1.6 0.4-3.2 0.9-1.6 0.5-3.1 1-1.6 0.6-3.1 1.2-1.6 0.6-3.1 1.4-1.5 0.7-2.9 1.5-1.5 0.7-2.9 1.6-1.5 0.8-2.8 1.8-1.4 0.9-2.8 1.9-1.3 1-2.6 2-1.3 1.1-2.5 2.2-1.2 1.1-2.4 2.3-1.2 1.2-2.3 2.4-1.1 1.2-2.2 2.5-1 1.3-2 2.6-1 1.4-1.9 2.8-1 1.3-1.8 2.8-0.9 1.4-1.7 2.9-0.7 1.4-1.5 2.9-0.7 1.5-1.3 3.1-0.6 1.5-1.2 3.1-0.6 1.5-1 3.1-0.5 1.6-0.9 3.2-0.4 1.6-0.8 3.3-0.3 1.6-0.5 3.2-0.3 1.7-0.4 3.3-0.2 1.7-0.3 3.4-0.1 1.6-0.1 3.3 0 1.6 0.1 3.3 0.1 1.7 0.3 3.3 0.1 1.7 0.4 3.3 0.2 1.7 0.5 3.3 0.4 1.6 0.8 3.2 0.4 1.6 0.9 3.2 0.4 1.6 1 3.2 0.6 1.6 1.2 3.1 0.6 1.5 1.3 3 0.8 1.5 1.5 3 0.8 1.5 1.7 2.9 0.8 1.4 1.8 2.8 0.9 1.4 1.9 2.7 1 1.4 2 2.6 1.1 1.3 2.2 2.6 1.1 1.2 2.3 2.4 1.2 1.1 2.4 2.3 1.2 1.1 2.5 2.1 1.3 1.1 2.6 2.1 1.4 1 2.8 1.9 1.3 0.9 2.8 1.8 1.4 0.8 2.9 1.6 1.4 0.8 2.9 1.5 1.5 0.7 3.1 1.3 1.5 0.7 3.1 1.2 1.5 0.6 3.1 1.1 1.6 0.5 3.2 0.9 1.6 0.4 3.3 0.7 1.6 0.3 3.3 0.6 1.6 0.2 3.3 0.4 1.6 0.1 3.3 0.2 1.6 0.1 3.3 0.1 1.7 0 3.3-0.1 1.7-0.1 3.3-0.2 1.7-0.2 3.3-0.4 1.7-0.3 3.3-0.6 1.6-0.3 3.3-0.7 1.6-0.4 3.2-0.9 1.6-0.5 3.1-1.1 1.6-0.5 3.1-1.2 1.6-0.6 3.1-1.3 1.5-0.7 2.9-1.5 1.5-0.8 2.9-1.6 1.5-0.9 2.8-1.8 1.4-0.9 2.8-1.9 1.3-1 2.6-2.1 1.3-1 2.5-2.1 1.2-1.2 2.4-2.3 1.2-1.2 2.3-2.4 1.1-1.3 2.2-2.6 1-1.2 2-2.6 1-1.3 1.9-2.7 0.9-1.4 1.8-2.8 0.9-1.4 1.6-2.9 0.8-1.5 1.5-3 0.8-1.5 1.4-3 0.6-1.5 1.2-3.1 0.5-1.6 1-3.2 0.5-1.6 0.9-3.2 0.4-1.6 0.7-3.2 0.4-1.6 0.6-3.3 0.3-1.6 0.4-3.3 0.2-1.6 0.3-3.3 0-1.7 0-3.3 0-1.7 0-3.3-0.1-1.7-0.3-3.4-0.1-1.6-0.4-3.3-0.2-1.6-0.6-3.2-0.3-1.7-0.7-3.3-0.4-1.6-0.9-3.2-0.5-1.6-1-3.1-0.6-1.6-1.2-3.1-0.7-1.6-1.4-3.1-0.7-1.5-1.5-2.9-0.7-1.5-1.6-2.9-0.9-1.5-1.8-2.8-0.9-1.4-1.9-2.8-1-1.3-2-2.6-1.1-1.3-2.2-2.5-1.1-1.2-2.3-2.4-1.2-1.2-2.4-2.3-1.2-1.1-2.5-2.2-1.3-1-2.6-2-1.4-1-2.8-1.9-1.3-1-2.8-1.8-1.4-0.9-2.9-1.6-1.4-0.8-2.9-1.5-1.5-0.8-3.1-1.4-1.5-0.6-3.1-1.2-1.5-0.5-3.1-1-1.6-0.5-3.2-0.9-1.7-0.4-3.3-0.7-1.6-0.4-3.3-0.6-1.6-0.3-3.3-0.4-1.6-0.2-3.3-0.3-1.6 0-3.3 0-1.7 0-3.3 0z"/><path class="a" d="m35.6 171.4c0 0-0.6-52.9 58.3-57.6q-9.4 4.5-18 10.5-8.5 6.1-16 13.4-7.4 7.4-13.6 15.9-6.1 8.4-10.7 17.8z"/><path class="a" d="m140.9 196.2q0 0.9-0.1 1.8-0.2 0.8-0.5 1.7-0.4 0.8-0.9 1.5-0.5 0.8-1.1 1.4-0.6 0.6-1.4 1.1-0.7 0.5-1.5 0.8-0.9 0.4-1.7 0.6-0.9 0.1-1.8 0.1-0.9 0-1.8-0.1-0.8-0.2-1.6-0.6-0.9-0.3-1.6-0.8-0.7-0.5-1.4-1.1-0.6-0.6-1.1-1.4-0.5-0.7-0.8-1.5-0.4-0.9-0.5-1.7-0.2-0.9-0.2-1.8 0-0.9 0.2-1.8 0.1-0.8 0.5-1.7 0.3-0.8 0.8-1.5 0.5-0.8 1.1-1.4 0.7-0.6 1.4-1.1 0.7-0.5 1.6-0.8 0.8-0.4 1.6-0.6 0.9-0.1 1.8-0.1 0.9 0 1.8 0.1 0.8 0.2 1.7 0.6 0.8 0.3 1.5 0.8 0.8 0.5 1.4 1.1 0.6 0.6 1.1 1.4 0.5 0.7 0.9 1.5 0.3 0.9 0.5 1.7 0.1 0.9 0.1 1.8z"/><path class="a" d="m131.3 177c0-3.1 2.5-5.6 5.6-5.6 3.1 0 5.6 2.5 5.6 5.6 0 3.1-2.5 5.6-5.6 5.6-3.1 0-5.6-2.5-5.6-5.6z"/><path fill-rule="evenodd" class="a" d="m78.7 434.5q2.5 0 4.9 0.3 2.5 0.2 4.9 0.7 2.4 0.5 4.7 1.2 2.4 0.7 4.6 1.7 2.3 0.9 4.5 2.1 2.1 1.1 4.2 2.5 2 1.4 3.9 2.9 1.9 1.6 3.7 3.3 1.7 1.7 3.3 3.6 1.5 1.9 2.9 4 1.4 2 2.5 4.2 1.2 2.2 2.1 4.4 1 2.3 1.7 4.6 0.7 2.4 1.2 4.8 0.4 2.4 0.7 4.8 0.2 2.5 0.2 4.9 0 2.5-0.2 4.9-0.2 2.5-0.7 4.9-0.5 2.4-1.2 4.8-0.7 2.3-1.7 4.6-0.9 2.2-2.1 4.4-1.1 2.2-2.5 4.2-1.4 2.1-2.9 4-1.6 1.9-3.3 3.6-1.8 1.7-3.7 3.3-1.9 1.6-3.9 2.9-2 1.4-4.2 2.5-2.2 1.2-4.4 2.1-2.3 1-4.7 1.7-2.3 0.7-4.7 1.2-2.4 0.5-4.9 0.7-2.4 0.2-4.9 0.2-2.4 0-4.9-0.2-2.4-0.2-4.8-0.7-2.5-0.5-4.8-1.2-2.4-0.7-4.6-1.7-2.3-0.9-4.5-2.1-2.1-1.1-4.2-2.5-2-1.3-3.9-2.9-1.9-1.6-3.7-3.3-1.7-1.7-3.2-3.6-1.6-1.9-3-4-1.3-2-2.5-4.2-1.2-2.2-2.1-4.4-0.9-2.3-1.6-4.6-0.8-2.4-1.2-4.8-0.5-2.4-0.8-4.9-0.2-2.4-0.2-4.9 0-2.4 0.2-4.9 0.3-2.4 0.8-4.8 0.4-2.4 1.2-4.8 0.7-2.3 1.6-4.6 0.9-2.3 2.1-4.4 1.2-2.2 2.5-4.2 1.4-2.1 3-4 1.5-1.9 3.2-3.6 1.8-1.7 3.7-3.3 1.9-1.6 3.9-2.9 2.1-1.4 4.2-2.5 2.2-1.2 4.5-2.1 2.2-1 4.6-1.7 2.3-0.7 4.8-1.2 2.4-0.5 4.8-0.7 2.5-0.3 4.9-0.3zm-4.5 4.1q-2.3 0.2-4.5 0.7-2.2 0.4-4.4 1.1-2.2 0.6-4.3 1.5-2.1 0.9-4.1 1.9-2 1.1-3.8 2.4-1.9 1.2-3.7 2.7-1.7 1.4-3.3 3-1.6 1.6-3.1 3.4-1.4 1.7-2.7 3.6-1.2 1.9-2.3 3.9-1.1 2-2 4.1-0.8 2.1-1.5 4.2-0.6 2.2-1.1 4.4-0.4 2.3-0.6 4.5-0.3 2.3-0.3 4.5 0 2.3 0.3 4.6 0.2 2.2 0.6 4.5 0.5 2.2 1.1 4.3 0.7 2.2 1.5 4.3 0.9 2.1 2 4.1 1.1 2 2.3 3.9 1.3 1.9 2.7 3.6 1.5 1.8 3.1 3.4 1.6 1.6 3.3 3 1.8 1.5 3.7 2.7 1.8 1.3 3.8 2.4 2 1 4.1 1.9 2.1 0.9 4.3 1.5 2.2 0.7 4.4 1.1 2.2 0.5 4.5 0.7 2.2 0.2 4.5 0.2 2.3 0 4.5-0.2 2.3-0.2 4.5-0.7 2.3-0.4 4.4-1.1 2.2-0.6 4.3-1.5 2.1-0.9 4.1-1.9 2-1.1 3.9-2.4 1.9-1.2 3.6-2.7 1.8-1.4 3.4-3 1.6-1.6 3-3.4 1.5-1.7 2.7-3.6 1.3-1.9 2.3-3.9 1.1-2 2-4.1 0.9-2.1 1.5-4.3 0.7-2.1 1.1-4.3 0.5-2.3 0.7-4.5 0.2-2.3 0.2-4.6 0-2.2-0.2-4.5-0.2-2.2-0.7-4.5-0.4-2.2-1.1-4.4-0.6-2.1-1.5-4.2-0.9-2.1-2-4.1-1-2-2.3-3.9-1.2-1.9-2.7-3.6-1.4-1.8-3-3.4-1.6-1.6-3.4-3-1.7-1.5-3.6-2.7-1.9-1.3-3.9-2.4-2-1-4.1-1.9-2.1-0.9-4.3-1.5-2.1-0.7-4.4-1.1-2.2-0.5-4.5-0.7-2.2-0.2-4.5-0.2-2.3 0-4.5 0.2z"/><path class="a" d="m40.1 481.9c0 0-0.4-36 39.8-39.3q-6.4 3.1-12.3 7.2-5.8 4.1-10.9 9.1-5.1 5.1-9.2 10.8-4.2 5.8-7.4 12.2z"/><path class="a" d="m111.9 498.8q0 0.6-0.1 1.2-0.1 0.6-0.3 1.2-0.3 0.5-0.6 1-0.3 0.5-0.8 1-0.4 0.4-0.9 0.7-0.5 0.4-1.1 0.6-0.5 0.2-1.1 0.3-0.6 0.2-1.2 0.2-0.6 0-1.2-0.2-0.6-0.1-1.2-0.3-0.5-0.2-1-0.6-0.5-0.3-1-0.7-0.4-0.5-0.7-1-0.4-0.5-0.6-1-0.2-0.6-0.4-1.2-0.1-0.6-0.1-1.2 0-0.6 0.1-1.2 0.2-0.6 0.4-1.1 0.2-0.6 0.6-1.1 0.3-0.5 0.7-0.9 0.5-0.5 1-0.8 0.5-0.3 1-0.6 0.6-0.2 1.2-0.3 0.6-0.1 1.2-0.1 0.6 0 1.2 0.1 0.6 0.1 1.1 0.3 0.6 0.3 1.1 0.6 0.5 0.3 0.9 0.8 0.5 0.4 0.8 0.9 0.3 0.5 0.6 1.1 0.2 0.5 0.3 1.1 0.1 0.6 0.1 1.2z"/><path class="a" d="m105.4 485.7c0-2.1 1.7-3.8 3.8-3.8 2.1 0 3.8 1.7 3.8 3.8 0 2.1-1.7 3.8-3.8 3.8-2.1 0-3.8-1.7-3.8-3.8z"/><path fill-rule="evenodd" class="a" d="m378.6 0.2q2 0.2 4.1 0.6 2 0.4 3.9 1 2 0.6 3.9 1.4 1.9 0.8 3.7 1.7 1.8 1 3.5 2.2 1.7 1.1 3.3 2.4 1.6 1.3 3.1 2.8 1.4 1.4 2.7 3 1.3 1.6 2.5 3.3 1.1 1.7 2.1 3.5 0.9 1.8 1.7 3.7 0.8 1.9 1.4 3.9 0.6 1.9 1 4 0.4 2 0.6 4 0.2 2.1 0.2 4.1 0 2.1-0.2 4.1-0.2 2.1-0.6 4.1-0.4 2-1 4-0.6 1.9-1.4 3.8-0.7 1.9-1.7 3.7-1 1.8-2.1 3.5-1.2 1.8-2.5 3.3-1.3 1.6-2.7 3.1-1.5 1.4-3.1 2.7-1.6 1.3-3.3 2.5-1.7 1.1-3.5 2.1-1.8 1-3.7 1.7-1.9 0.8-3.9 1.4-1.9 0.6-3.9 1-2.1 0.4-4.1 0.6-2 0.2-4.1 0.2-2.1 0-4.1-0.2-2.1-0.2-4.1-0.6-2-0.4-4-1-1.9-0.6-3.8-1.4-1.9-0.7-3.7-1.7-1.8-1-3.5-2.1-1.8-1.2-3.3-2.5-1.6-1.3-3.1-2.7-1.4-1.5-2.7-3.1-1.4-1.5-2.5-3.3-1.1-1.7-2.1-3.5-1-1.8-1.8-3.7-0.7-1.9-1.3-3.8-0.6-2-1-4-0.4-2-0.6-4.1-0.2-2-0.2-4.1 0-2 0.2-4.1 0.2-2 0.6-4 0.4-2.1 1-4 0.6-2 1.3-3.9 0.8-1.9 1.8-3.7 1-1.8 2.1-3.5 1.1-1.7 2.5-3.3 1.3-1.6 2.7-3.1 1.5-1.4 3.1-2.7 1.5-1.3 3.3-2.5 1.7-1.1 3.5-2.1 1.8-0.9 3.7-1.7 1.9-0.8 3.8-1.4 2-0.6 4-1 2-0.4 4.1-0.6 2-0.2 4.1-0.2 2 0 4.1 0.2zm-7.9 3.2q-1.9 0.2-3.7 0.5-1.9 0.4-3.7 1-1.8 0.5-3.6 1.2-1.7 0.8-3.4 1.7-1.7 0.8-3.3 1.9-1.5 1.1-3 2.3-1.5 1.2-2.8 2.5-1.4 1.3-2.6 2.8-1.2 1.5-2.2 3.1-1.1 1.5-2 3.2-0.9 1.7-1.6 3.4-0.7 1.8-1.3 3.6-0.5 1.8-0.9 3.7-0.4 1.8-0.5 3.7-0.2 1.9-0.2 3.8 0 1.9 0.2 3.8 0.1 1.9 0.5 3.7 0.4 1.9 0.9 3.7 0.6 1.8 1.3 3.6 0.7 1.7 1.6 3.4 0.9 1.7 2 3.3 1 1.5 2.2 3 1.2 1.5 2.6 2.8 1.3 1.4 2.8 2.6 1.5 1.2 3 2.2 1.6 1.1 3.3 2 1.7 0.9 3.4 1.6 1.8 0.7 3.6 1.3 1.8 0.5 3.7 0.9 1.8 0.4 3.7 0.5 1.9 0.2 3.8 0.2 1.9 0 3.8-0.2 1.9-0.1 3.7-0.5 1.9-0.4 3.7-0.9 1.8-0.6 3.6-1.3 1.7-0.7 3.4-1.6 1.7-0.9 3.3-2 1.5-1 3-2.2 1.5-1.2 2.8-2.6 1.4-1.3 2.6-2.8 1.2-1.5 2.2-3 1.1-1.6 2-3.3 0.9-1.7 1.6-3.4 0.7-1.8 1.3-3.6 0.5-1.8 0.9-3.7 0.4-1.8 0.5-3.7 0.2-1.9 0.2-3.8 0-1.9-0.2-3.8-0.1-1.9-0.5-3.7-0.4-1.9-0.9-3.7-0.6-1.8-1.3-3.6-0.7-1.7-1.6-3.4-0.9-1.7-2-3.2-1-1.6-2.2-3.1-1.2-1.5-2.6-2.8-1.3-1.3-2.8-2.5-1.5-1.2-3-2.3-1.6-1.1-3.3-1.9-1.7-0.9-3.4-1.7-1.8-0.7-3.6-1.2-1.8-0.6-3.7-1-1.8-0.3-3.7-0.5-1.9-0.2-3.8-0.2-1.9 0-3.8 0.2z"/><path class="a" d="m342.2 39.6c0 0-0.3-30.2 33.3-32.8q-5.4 2.5-10.3 6-4.9 3.4-9.1 7.6-4.3 4.2-7.8 9-3.4 4.9-6.1 10.2z"/><path class="a" d="m392 53.7c0-2.8 2.3-5.1 5.1-5.1 2.9 0 5.2 2.3 5.2 5.1 0 2.9-2.3 5.2-5.2 5.2-2.8 0-5.1-2.3-5.1-5.2z"/><path class="a" d="m396.8 42.8c0-1.8 1.4-3.2 3.2-3.2 1.8 0 3.2 1.4 3.2 3.2 0 1.8-1.4 3.2-3.2 3.2-1.8 0-3.2-1.4-3.2-3.2z"/><path fill-rule="evenodd" class="a" d="m391.3 394q1.3 0.2 2.6 0.4 1.3 0.3 2.6 0.7 1.3 0.4 2.6 0.9 1.2 0.5 2.4 1.1 1.2 0.7 2.3 1.4 1.1 0.8 2.1 1.6 1.1 0.9 2 1.8 1 1 1.8 2 0.9 1 1.6 2.2 0.8 1.1 1.4 2.3 0.6 1.1 1.2 2.4 0.5 1.2 0.9 2.5 0.4 1.3 0.6 2.6 0.3 1.3 0.4 2.7 0.1 1.3 0.2 2.6 0 1.4-0.2 2.7-0.1 1.4-0.4 2.7-0.2 1.3-0.6 2.6-0.4 1.3-0.9 2.5-0.5 1.2-1.2 2.4-0.6 1.2-1.4 2.3-0.7 1.2-1.6 2.2-0.8 1-1.8 2-0.9 0.9-2 1.8-1 0.8-2.1 1.6-1.1 0.7-2.3 1.4-1.2 0.6-2.4 1.1-1.3 0.5-2.6 0.9-1.3 0.4-2.6 0.7-1.3 0.2-2.6 0.4-1.4 0.1-2.7 0.1-1.3 0-2.7-0.1-1.3-0.2-2.6-0.4-1.4-0.3-2.6-0.7-1.3-0.4-2.6-0.9-1.2-0.5-2.4-1.1-1.2-0.7-2.3-1.4-1.1-0.8-2.2-1.6-1-0.9-1.9-1.8-1-1-1.9-2-0.8-1-1.6-2.2-0.7-1.1-1.3-2.3-0.7-1.2-1.2-2.4-0.5-1.2-0.9-2.5-0.4-1.3-0.6-2.6-0.3-1.3-0.4-2.7-0.2-1.3-0.2-2.7 0-1.3 0.2-2.6 0.1-1.4 0.4-2.7 0.2-1.3 0.6-2.6 0.4-1.3 0.9-2.5 0.5-1.3 1.2-2.4 0.6-1.2 1.3-2.3 0.8-1.2 1.6-2.2 0.9-1 1.9-2 0.9-0.9 1.9-1.8 1.1-0.8 2.2-1.6 1.1-0.7 2.3-1.4 1.2-0.6 2.4-1.1 1.3-0.5 2.6-0.9 1.2-0.4 2.6-0.7 1.3-0.2 2.6-0.4 1.4-0.1 2.7-0.1 1.3 0 2.7 0.1zm-5.2 2.1q-1.2 0.1-2.4 0.4-1.3 0.2-2.4 0.6-1.2 0.3-2.4 0.8-1.1 0.5-2.2 1.1-1.1 0.6-2.1 1.3-1.1 0.6-2 1.4-1 0.8-1.9 1.7-0.8 0.9-1.6 1.8-0.8 1-1.5 2-0.7 1-1.3 2.1-0.6 1.1-1 2.3-0.5 1.1-0.9 2.3-0.3 1.2-0.6 2.4-0.2 1.2-0.3 2.5-0.2 1.2-0.2 2.4 0 1.3 0.2 2.5 0.1 1.3 0.3 2.5 0.3 1.2 0.6 2.4 0.4 1.2 0.9 2.3 0.4 1.2 1 2.2 0.6 1.1 1.3 2.2 0.7 1 1.5 2 0.8 0.9 1.6 1.8 0.9 0.9 1.9 1.7 0.9 0.7 2 1.4 1 0.7 2.1 1.3 1.1 0.6 2.2 1.1 1.2 0.4 2.4 0.8 1.1 0.4 2.4 0.6 1.2 0.2 2.4 0.4 1.3 0.1 2.5 0.1 1.2 0 2.5-0.1 1.2-0.2 2.4-0.4 1.2-0.2 2.4-0.6 1.2-0.4 2.4-0.8 1.1-0.5 2.2-1.1 1.1-0.6 2.1-1.3 1.1-0.7 2-1.4 1-0.8 1.9-1.7 0.8-0.9 1.6-1.8 0.8-1 1.5-2 0.7-1.1 1.3-2.2 0.6-1 1-2.2 0.5-1.1 0.9-2.3 0.3-1.2 0.6-2.4 0.2-1.2 0.3-2.5 0.2-1.2 0.2-2.5 0-1.2-0.2-2.4-0.1-1.3-0.3-2.5-0.3-1.2-0.6-2.4-0.4-1.2-0.9-2.3-0.4-1.2-1-2.3-0.6-1.1-1.3-2.1-0.7-1-1.5-2-0.8-0.9-1.6-1.8-0.9-0.9-1.9-1.7-0.9-0.8-2-1.4-1-0.7-2.1-1.3-1.1-0.6-2.2-1.1-1.2-0.5-2.4-0.8-1.2-0.4-2.4-0.6-1.2-0.3-2.4-0.4-1.3-0.1-2.5-0.1-1.2 0-2.5 0.1z"/><path class="a" d="m367.5 419.8c0 0-0.2-19.7 21.7-21.5q-3.5 1.7-6.7 4-3.2 2.2-5.9 4.9-2.8 2.8-5.1 5.9-2.3 3.2-4 6.7z"/><path class="a" d="m406.8 429q0 0.7-0.3 1.3-0.2 0.7-0.7 1.1-0.5 0.5-1.1 0.8-0.6 0.2-1.3 0.2-0.7 0-1.3-0.2-0.6-0.3-1.1-0.8-0.5-0.4-0.7-1.1-0.3-0.6-0.3-1.3 0-0.6 0.3-1.2 0.2-0.7 0.7-1.1 0.5-0.5 1.1-0.8 0.6-0.2 1.3-0.2 0.7 0 1.3 0.2 0.6 0.3 1.1 0.8 0.5 0.4 0.7 1.1 0.3 0.6 0.3 1.2z"/><path class="a" d="m407.4 421.9q0 0.4-0.2 0.8-0.2 0.4-0.5 0.7-0.2 0.3-0.6 0.4-0.4 0.2-0.8 0.2-0.4 0-0.8-0.2-0.4-0.1-0.7-0.4-0.3-0.3-0.5-0.7-0.1-0.4-0.1-0.8 0-0.4 0.1-0.8 0.2-0.4 0.5-0.7 0.3-0.3 0.7-0.4 0.4-0.2 0.8-0.2 0.4 0 0.8 0.2 0.4 0.1 0.6 0.4 0.3 0.3 0.5 0.7 0.2 0.4 0.2 0.8z"/><path fill-rule="evenodd" class="a" d="m789.6 163.7q1.3 0 2.6 0.2 1.4 0.1 2.7 0.4 1.3 0.2 2.6 0.6 1.3 0.4 2.5 0.9 1.3 0.5 2.4 1.2 1.2 0.6 2.3 1.4 1.2 0.7 2.2 1.6 1 0.8 2 1.8 0.9 0.9 1.8 1.9 0.8 1.1 1.6 2.2 0.7 1.1 1.4 2.3 0.6 1.2 1.1 2.4 0.5 1.3 0.9 2.5 0.4 1.3 0.7 2.6 0.2 1.4 0.4 2.7 0.1 1.3 0.1 2.7 0 1.3-0.1 2.7-0.2 1.3-0.4 2.6-0.3 1.3-0.7 2.6-0.4 1.3-0.9 2.5-0.5 1.3-1.1 2.5-0.7 1.2-1.4 2.3-0.7 1.1-1.6 2.1-0.9 1.1-1.8 2-1 1-2 1.8-1 0.9-2.1 1.6-1.2 0.8-2.4 1.4-1.1 0.6-2.4 1.1-1.2 0.6-2.5 0.9-1.3 0.4-2.6 0.7-1.3 0.3-2.7 0.4-1.3 0.1-2.6 0.1-1.4 0-2.7-0.1-1.4-0.1-2.7-0.4-1.3-0.3-2.6-0.7-1.3-0.3-2.5-0.9-1.3-0.5-2.4-1.1-1.2-0.6-2.3-1.4-1.2-0.7-2.2-1.6-1-0.8-2-1.8-0.9-0.9-1.8-2-0.8-1-1.6-2.1-0.7-1.1-1.4-2.3-0.6-1.2-1.1-2.5-0.5-1.2-0.9-2.5-0.4-1.3-0.7-2.6-0.2-1.3-0.4-2.6-0.1-1.4-0.1-2.7 0-1.4 0.1-2.7 0.2-1.3 0.4-2.7 0.3-1.3 0.7-2.6 0.4-1.2 0.9-2.5 0.5-1.2 1.1-2.4 0.7-1.2 1.4-2.3 0.8-1.1 1.6-2.2 0.9-1 1.8-2 1-0.9 2-1.8 1-0.8 2.2-1.6 1.1-0.7 2.3-1.3 1.1-0.7 2.4-1.2 1.2-0.5 2.5-0.9 1.3-0.4 2.6-0.6 1.3-0.3 2.7-0.4 1.3-0.2 2.7-0.2zm-2.5 2.3q-1.3 0.1-2.5 0.3-1.2 0.3-2.4 0.6-1.2 0.4-2.3 0.9-1.2 0.4-2.3 1-1 0.6-2.1 1.3-1 0.7-2 1.5-0.9 0.7-1.8 1.6-0.9 0.9-1.7 1.9-0.8 0.9-1.4 2-0.7 1-1.3 2.1-0.6 1.1-1.1 2.2-0.5 1.2-0.8 2.3-0.4 1.2-0.6 2.5-0.3 1.2-0.4 2.4-0.1 1.2-0.1 2.5 0 1.2 0.1 2.5 0.1 1.2 0.4 2.4 0.2 1.2 0.6 2.4 0.3 1.2 0.8 2.3 0.5 1.2 1.1 2.3 0.6 1.1 1.3 2.1 0.6 1 1.4 2 0.8 1 1.7 1.8 0.9 0.9 1.8 1.7 1 0.8 2 1.5 1.1 0.7 2.1 1.2 1.1 0.6 2.3 1.1 1.1 0.5 2.3 0.8 1.2 0.4 2.4 0.6 1.2 0.3 2.5 0.4 1.2 0.1 2.5 0.1 1.2 0 2.4-0.1 1.3-0.1 2.5-0.4 1.2-0.2 2.4-0.6 1.2-0.3 2.3-0.8 1.2-0.5 2.3-1.1 1.1-0.5 2.1-1.2 1-0.7 2-1.5 0.9-0.8 1.8-1.7 0.9-0.8 1.7-1.8 0.8-1 1.5-2 0.6-1 1.2-2.1 0.6-1.1 1.1-2.3 0.5-1.1 0.8-2.3 0.4-1.2 0.6-2.4 0.3-1.2 0.4-2.4 0.1-1.3 0.1-2.5 0-1.3-0.1-2.5-0.1-1.2-0.4-2.4-0.2-1.3-0.6-2.5-0.3-1.1-0.8-2.3-0.5-1.1-1.1-2.2-0.6-1.1-1.2-2.1-0.7-1.1-1.5-2-0.8-1-1.7-1.9-0.9-0.9-1.8-1.6-1-0.8-2-1.5-1-0.7-2.1-1.3-1.1-0.6-2.3-1-1.1-0.5-2.3-0.9-1.2-0.3-2.4-0.6-1.2-0.2-2.5-0.3-1.2-0.2-2.4-0.2-1.3 0-2.5 0.2z"/><path class="a" d="m768.4 189.6c0 0-0.2-19.7 21.8-21.4q-3.5 1.6-6.7 3.9-3.2 2.2-6 5-2.8 2.7-5 5.9-2.3 3.1-4.1 6.6z"/><path class="a" d="m807.7 198.9q0 0.6-0.2 1.3-0.3 0.6-0.8 1.1-0.4 0.4-1 0.7-0.7 0.2-1.3 0.2-0.7 0-1.3-0.2-0.6-0.3-1.1-0.7-0.5-0.5-0.7-1.1-0.3-0.6-0.3-1.3 0-0.7 0.2-1.3 0.3-0.6 0.8-1.1 0.5-0.5 1.1-0.7 0.6-0.3 1.3-0.3 0.6 0 1.3 0.3 0.6 0.2 1 0.7 0.5 0.5 0.8 1.1 0.2 0.6 0.2 1.3z"/><path class="a" d="m808.3 191.7q0 0.4-0.1 0.8-0.2 0.4-0.5 0.7-0.3 0.3-0.7 0.4-0.4 0.2-0.8 0.2-0.4 0-0.8-0.2-0.3-0.1-0.6-0.4-0.3-0.3-0.5-0.7-0.2-0.4-0.2-0.8 0-0.4 0.2-0.8 0.2-0.4 0.5-0.7 0.3-0.2 0.6-0.4 0.4-0.2 0.8-0.2 0.4 0 0.8 0.2 0.4 0.2 0.7 0.4 0.3 0.3 0.5 0.7 0.1 0.4 0.1 0.8z"/><path fill-rule="evenodd" class="a" d="m378 617.6q1.8 0.1 3.6 0.3 1.8 0.1 3.5 0.4 1.8 0.3 3.6 0.6 1.8 0.4 3.5 0.8 1.8 0.5 3.5 1 1.7 0.5 3.4 1.1 1.7 0.6 3.4 1.3 1.6 0.7 3.2 1.5 1.7 0.7 3.3 1.6 1.5 0.8 3.1 1.8 1.5 0.9 3 1.9 1.5 1 3 2.1 1.4 1 2.8 2.2 1.4 1.1 2.7 2.3 1.4 1.2 2.6 2.5 1.3 1.3 2.5 2.6 1.2 1.4 2.4 2.7 1.1 1.4 2.2 2.9 1.1 1.4 2.1 2.9 1 1.5 1.9 3.1 0.9 1.5 1.8 3.1 0.8 1.6 1.6 3.2 0.8 1.6 1.5 3.3 0.6 1.7 1.3 3.4 0.6 1.6 1.1 3.4 0.5 1.7 0.9 3.4 0.5 1.8 0.8 3.5 0.4 1.8 0.7 3.6 0.2 1.8 0.4 3.6 0.2 1.8 0.3 3.6 0.1 1.8 0.1 3.6 0 1.8-0.1 3.6-0.1 1.8-0.3 3.5-0.2 1.8-0.4 3.6-0.3 1.8-0.6 3.6-0.4 1.7-0.8 3.5-0.5 1.7-1 3.4-0.5 1.8-1.1 3.5-0.6 1.7-1.3 3.3-0.7 1.7-1.5 3.3-0.8 1.6-1.6 3.2-0.9 1.6-1.8 3.2-0.9 1.5-1.9 3-1 1.5-2.1 2.9-1.1 1.5-2.2 2.9-1.1 1.4-2.3 2.7-1.3 1.3-2.5 2.6-1.3 1.3-2.6 2.5-1.4 1.2-2.8 2.4-1.4 1.1-2.8 2.2-1.5 1-3 2-1.4 1-3 2-1.5 0.9-3.1 1.7-1.6 0.9-3.2 1.7-1.7 0.7-3.3 1.4-1.7 0.7-3.4 1.3-1.7 0.6-3.4 1.1-1.7 0.6-3.5 1-1.7 0.4-3.5 0.8-1.8 0.3-3.6 0.6-1.7 0.3-3.5 0.4-1.8 0.2-3.6 0.3-1.8 0.1-3.6 0.1-1.8 0-3.6-0.1-1.8-0.1-3.6-0.3-1.8-0.1-3.6-0.4-1.8-0.3-3.5-0.6-1.8-0.4-3.5-0.8-1.8-0.4-3.5-1-1.7-0.5-3.4-1.1-1.7-0.6-3.4-1.3-1.7-0.7-3.3-1.4-1.6-0.8-3.2-1.7-1.6-0.8-3.1-1.7-1.6-1-3.1-2-1.5-1-2.9-2-1.5-1.1-2.9-2.2-1.4-1.2-2.7-2.4-1.3-1.2-2.6-2.5-1.3-1.3-2.5-2.6-1.2-1.3-2.3-2.7-1.2-1.4-2.3-2.9-1-1.4-2-2.9-1-1.5-2-3-0.9-1.6-1.7-3.2-0.9-1.6-1.7-3.2-0.7-1.6-1.4-3.3-0.7-1.6-1.3-3.3-0.6-1.7-1.1-3.5-0.6-1.7-1-3.4-0.4-1.8-0.8-3.5-0.3-1.8-0.6-3.6-0.3-1.8-0.4-3.6-0.2-1.8-0.3-3.5-0.1-1.8-0.1-3.6 0-1.8 0.1-3.6 0.1-1.8 0.3-3.6 0.1-1.8 0.4-3.6 0.3-1.8 0.6-3.6 0.4-1.7 0.8-3.5 0.4-1.7 1-3.4 0.5-1.8 1.1-3.5 0.6-1.7 1.3-3.3 0.7-1.7 1.4-3.3 0.8-1.6 1.7-3.2 0.8-1.6 1.7-3.2 1-1.5 2-3 1-1.5 2-2.9 1.1-1.5 2.3-2.9 1.1-1.4 2.3-2.7 1.2-1.3 2.5-2.6 1.3-1.3 2.6-2.5 1.3-1.2 2.7-2.3 1.4-1.2 2.9-2.3 1.4-1 2.9-2 1.5-1 3.1-2 1.5-0.9 3.1-1.7 1.6-0.9 3.2-1.7 1.6-0.7 3.3-1.4 1.7-0.7 3.4-1.3 1.7-0.6 3.4-1.1 1.7-0.6 3.5-1 1.7-0.4 3.5-0.8 1.7-0.3 3.5-0.6 1.8-0.3 3.6-0.4 1.8-0.2 3.6-0.3 1.8-0.1 3.6-0.1 1.8 0 3.6 0.1zm-6.9 5.6q-1.7 0.1-3.4 0.3-1.6 0.1-3.3 0.4-1.6 0.2-3.2 0.5-1.7 0.4-3.3 0.8-1.6 0.4-3.2 0.8-1.6 0.5-3.1 1.1-1.6 0.5-3.1 1.2-1.6 0.6-3.1 1.3-1.5 0.7-3 1.5-1.4 0.8-2.8 1.7-1.5 0.8-2.9 1.7-1.3 1-2.7 2-1.3 0.9-2.6 2-1.3 1.1-2.5 2.2-1.2 1.1-2.4 2.3-1.2 1.1-2.3 2.4-1.1 1.2-2.2 2.5-1 1.3-2 2.6-1 1.3-2 2.7-0.9 1.4-1.7 2.8-0.9 1.5-1.7 2.9-0.8 1.5-1.5 3-0.7 1.5-1.3 3-0.6 1.6-1.2 3.1-0.6 1.6-1.1 3.2-0.4 1.6-0.8 3.2-0.4 1.6-0.8 3.2-0.3 1.7-0.5 3.3-0.3 1.7-0.4 3.3-0.2 1.7-0.3 3.3-0.1 1.7-0.1 3.4 0 1.6 0.1 3.3 0.1 1.6 0.3 3.3 0.1 1.6 0.4 3.3 0.2 1.6 0.5 3.3 0.4 1.6 0.8 3.2 0.4 1.6 0.8 3.2 0.5 1.6 1.1 3.2 0.6 1.5 1.2 3.1 0.6 1.5 1.3 3 0.7 1.5 1.5 3 0.8 1.4 1.7 2.9 0.8 1.4 1.7 2.8 1 1.4 2 2.7 1 1.3 2 2.6 1.1 1.3 2.2 2.5 1.1 1.3 2.3 2.4 1.2 1.2 2.4 2.3 1.2 1.1 2.5 2.2 1.3 1.1 2.6 2 1.4 1 2.7 2 1.4 0.9 2.9 1.7 1.4 0.9 2.8 1.7 1.5 0.8 3 1.5 1.5 0.7 3.1 1.3 1.5 0.7 3.1 1.2 1.5 0.6 3.1 1.1 1.6 0.4 3.2 0.8 1.6 0.5 3.3 0.8 1.6 0.3 3.2 0.5 1.7 0.3 3.3 0.4 1.7 0.2 3.4 0.3 1.6 0.1 3.3 0.1 1.6 0 3.3-0.1 1.7-0.1 3.3-0.3 1.7-0.1 3.3-0.4 1.7-0.2 3.3-0.5 1.6-0.3 3.2-0.8 1.7-0.4 3.2-0.8 1.6-0.5 3.2-1.1 1.6-0.5 3.1-1.2 1.5-0.6 3-1.3 1.6-0.7 3-1.5 1.5-0.8 2.9-1.7 1.4-0.8 2.8-1.7 1.4-1 2.7-2 1.4-0.9 2.7-2 1.2-1.1 2.5-2.2 1.2-1.1 2.4-2.3 1.2-1.1 2.3-2.4 1.1-1.2 2.2-2.5 1-1.3 2-2.6 1-1.3 1.9-2.7 0.9-1.4 1.8-2.8 0.8-1.5 1.6-2.9 0.8-1.5 1.5-3 0.7-1.5 1.4-3 0.6-1.6 1.2-3.1 0.5-1.6 1-3.2 0.5-1.6 0.9-3.2 0.4-1.6 0.7-3.2 0.4-1.7 0.6-3.3 0.2-1.7 0.4-3.3 0.2-1.7 0.3-3.3 0-1.7 0-3.3 0-1.7 0-3.4-0.1-1.6-0.3-3.3-0.2-1.6-0.4-3.3-0.2-1.6-0.6-3.3-0.3-1.6-0.7-3.2-0.4-1.6-0.9-3.2-0.5-1.6-1-3.2-0.6-1.5-1.2-3.1-0.7-1.5-1.4-3-0.7-1.5-1.5-3-0.8-1.4-1.6-2.9-0.9-1.4-1.8-2.8-0.9-1.4-1.9-2.7-1-1.3-2-2.6-1.1-1.3-2.2-2.5-1.1-1.3-2.3-2.4-1.2-1.2-2.4-2.3-1.3-1.1-2.5-2.2-1.3-1.1-2.7-2-1.3-1-2.7-2-1.4-0.9-2.8-1.7-1.4-0.9-2.9-1.7-1.4-0.8-3-1.5-1.5-0.7-3-1.3-1.5-0.7-3.1-1.2-1.6-0.6-3.2-1.1-1.5-0.4-3.2-0.8-1.6-0.4-3.2-0.8-1.6-0.3-3.3-0.5-1.6-0.3-3.3-0.4-1.6-0.2-3.3-0.3-1.7-0.1-3.3-0.1-1.7 0-3.3 0.1z"/><path class="a" d="m317.7 687c0 0-0.5-52.9 58.4-57.6q-9.4 4.5-18 10.5-8.6 6-16 13.4-7.4 7.3-13.6 15.8-6.1 8.5-10.8 17.9z"/><path class="a" d="m423.1 711.8q0 0.9-0.1 1.7-0.2 0.9-0.6 1.7-0.3 0.9-0.8 1.6-0.5 0.7-1.1 1.4-0.6 0.6-1.4 1.1-0.7 0.5-1.5 0.8-0.9 0.4-1.7 0.5-0.9 0.2-1.8 0.2-0.9 0-1.8-0.2-0.8-0.1-1.7-0.5-0.8-0.3-1.5-0.8-0.8-0.5-1.4-1.1-0.6-0.7-1.1-1.4-0.5-0.7-0.8-1.6-0.4-0.8-0.6-1.7-0.1-0.8-0.1-1.7 0-0.9 0.1-1.8 0.2-0.9 0.6-1.7 0.3-0.8 0.8-1.5 0.5-0.8 1.1-1.4 0.6-0.6 1.4-1.1 0.7-0.5 1.5-0.9 0.9-0.3 1.7-0.5 0.9-0.2 1.8-0.2 0.9 0 1.8 0.2 0.8 0.2 1.7 0.5 0.8 0.4 1.5 0.9 0.8 0.5 1.4 1.1 0.6 0.6 1.1 1.4 0.5 0.7 0.8 1.5 0.4 0.8 0.6 1.7 0.1 0.9 0.1 1.8z"/><path class="a" d="m413.5 692.6c0-3.1 2.5-5.6 5.6-5.6 3.1 0 5.6 2.5 5.6 5.6 0 3.1-2.5 5.6-5.6 5.6-3.1 0-5.6-2.5-5.6-5.6z"/><path fill-rule="evenodd" class="a" d="m288.7 1006.6q2.4 0.3 4.8 0.7 2.5 0.5 4.8 1.2 2.4 0.7 4.6 1.7 2.3 0.9 4.5 2.1 2.1 1.1 4.2 2.5 2 1.4 3.9 2.9 1.9 1.6 3.6 3.3 1.8 1.8 3.3 3.7 1.6 1.9 3 3.9 1.3 2 2.5 4.2 1.1 2.2 2.1 4.4 0.9 2.3 1.6 4.7 0.8 2.3 1.2 4.7 0.5 2.4 0.8 4.9 0.2 2.4 0.2 4.9 0 2.4-0.2 4.9-0.3 2.4-0.7 4.8-0.5 2.4-1.2 4.8-0.8 2.3-1.7 4.6-0.9 2.3-2.1 4.4-1.2 2.2-2.5 4.2-1.4 2.1-2.9 4-1.6 1.9-3.3 3.6-1.8 1.8-3.7 3.3-1.9 1.6-3.9 2.9-2.1 1.4-4.2 2.6-2.2 1.1-4.5 2.1-2.2 0.9-4.6 1.6-2.3 0.7-4.7 1.2-2.5 0.5-4.9 0.7-2.4 0.3-4.9 0.3-2.5 0-4.9-0.3-2.5-0.2-4.9-0.7-2.4-0.5-4.7-1.2-2.4-0.7-4.6-1.6-2.3-1-4.5-2.1-2.2-1.2-4.2-2.6-2-1.3-3.9-2.9-1.9-1.5-3.7-3.3-1.7-1.7-3.3-3.6-1.5-1.9-2.9-4-1.4-2-2.5-4.2-1.2-2.1-2.1-4.4-1-2.3-1.7-4.6-0.7-2.4-1.2-4.8-0.4-2.4-0.7-4.8-0.2-2.5-0.2-4.9 0-2.5 0.2-4.9 0.3-2.5 0.7-4.9 0.5-2.4 1.2-4.7 0.7-2.4 1.7-4.7 0.9-2.2 2.1-4.4 1.1-2.2 2.5-4.2 1.4-2.1 2.9-4 1.6-1.9 3.3-3.6 1.8-1.7 3.7-3.3 1.9-1.5 3.9-2.9 2-1.4 4.2-2.5 2.2-1.2 4.5-2.1 2.2-1 4.6-1.7 2.3-0.7 4.7-1.2 2.4-0.5 4.9-0.7 2.4-0.2 4.9-0.2 2.5 0 4.9 0.2zm-9.4 3.8q-2.3 0.2-4.5 0.7-2.2 0.4-4.4 1.1-2.2 0.6-4.3 1.5-2.1 0.9-4.1 2-2 1-3.9 2.3-1.8 1.2-3.6 2.7-1.8 1.4-3.4 3-1.6 1.6-3 3.4-1.4 1.7-2.7 3.6-1.3 1.9-2.3 3.9-1.1 2-2 4.1-0.8 2.1-1.5 4.3-0.7 2.1-1.1 4.4-0.4 2.2-0.7 4.4-0.2 2.3-0.2 4.6 0 2.2 0.2 4.5 0.3 2.2 0.7 4.5 0.4 2.2 1.1 4.4 0.7 2.1 1.5 4.2 0.9 2.1 2 4.1 1 2 2.3 3.9 1.3 1.9 2.7 3.7 1.4 1.7 3 3.3 1.6 1.6 3.4 3 1.8 1.5 3.6 2.7 1.9 1.3 3.9 2.4 2 1 4.1 1.9 2.1 0.9 4.3 1.5 2.2 0.7 4.4 1.1 2.2 0.5 4.5 0.7 2.2 0.2 4.5 0.2 2.3 0 4.5-0.2 2.3-0.2 4.5-0.7 2.2-0.4 4.4-1.1 2.2-0.6 4.3-1.5 2.1-0.9 4.1-1.9 2-1.1 3.9-2.4 1.8-1.2 3.6-2.7 1.7-1.4 3.3-3 1.7-1.6 3.1-3.3 1.4-1.8 2.7-3.7 1.3-1.9 2.3-3.9 1.1-2 2-4.1 0.8-2.1 1.5-4.2 0.6-2.2 1.1-4.4 0.4-2.3 0.7-4.5 0.2-2.3 0.2-4.5 0-2.3-0.2-4.6-0.3-2.2-0.7-4.4-0.5-2.3-1.1-4.4-0.7-2.2-1.5-4.3-0.9-2.1-2-4.1-1-2-2.3-3.9-1.3-1.9-2.7-3.6-1.4-1.8-3.1-3.4-1.6-1.6-3.3-3-1.8-1.5-3.6-2.7-1.9-1.3-3.9-2.3-2-1.1-4.1-2-2.1-0.9-4.3-1.5-2.2-0.7-4.4-1.1-2.2-0.5-4.5-0.7-2.2-0.2-4.5-0.2-2.3 0-4.5 0.2z"/><path class="a" d="m245.2 1053.7c0 0-0.4-36 39.8-39.2q-6.5 3-12.3 7.1-5.8 4.2-10.9 9.2-5.1 5-9.3 10.8-4.1 5.7-7.3 12.1z"/><path class="a" d="m317 1070.6q0 0.6-0.1 1.2-0.1 0.6-0.3 1.2-0.3 0.5-0.6 1-0.3 0.6-0.8 1-0.4 0.4-0.9 0.7-0.5 0.4-1.1 0.6-0.5 0.2-1.1 0.4-0.6 0.1-1.2 0.1-0.6 0-1.2-0.1-0.6-0.2-1.2-0.4-0.5-0.2-1.1-0.6-0.5-0.3-0.9-0.7-0.4-0.4-0.8-1-0.3-0.5-0.5-1-0.3-0.6-0.4-1.2-0.1-0.6-0.1-1.2 0-0.6 0.1-1.2 0.1-0.6 0.4-1.1 0.2-0.6 0.5-1.1 0.4-0.5 0.8-0.9 0.4-0.5 0.9-0.8 0.6-0.3 1.1-0.6 0.6-0.2 1.2-0.3 0.6-0.1 1.2-0.1 0.6 0 1.2 0.1 0.6 0.1 1.1 0.3 0.6 0.3 1.1 0.6 0.5 0.3 0.9 0.8 0.5 0.4 0.8 0.9 0.3 0.5 0.6 1.1 0.2 0.5 0.3 1.1 0.1 0.6 0.1 1.2z"/><path class="a" d="m310.5 1057.5c0-2.1 1.7-3.8 3.8-3.8 2.1 0 3.8 1.7 3.8 3.8 0 2.1-1.7 3.8-3.8 3.8-2.1 0-3.8-1.7-3.8-3.8z"/><path fill-rule="evenodd" class="a" d="m666.6 587.8q2.1 0 4.1 0.2 2.1 0.2 4.1 0.6 2 0.4 3.9 1 2 0.6 3.9 1.4 1.9 0.8 3.7 1.8 1.8 0.9 3.5 2.1 1.7 1.1 3.3 2.4 1.6 1.3 3.1 2.8 1.4 1.4 2.7 3 1.3 1.6 2.5 3.3 1.1 1.7 2.1 3.5 1 1.8 1.7 3.7 0.8 1.9 1.4 3.9 0.6 2 1 4 0.4 2 0.6 4 0.2 2.1 0.2 4.1 0 2.1-0.2 4.1-0.2 2.1-0.6 4.1-0.4 2-1 4-0.6 1.9-1.3 3.8-0.8 1.9-1.8 3.7-1 1.8-2.1 3.6-1.1 1.7-2.5 3.3-1.3 1.5-2.7 3-1.5 1.4-3 2.7-1.6 1.4-3.3 2.5-1.8 1.1-3.6 2.1-1.8 1-3.7 1.8-1.9 0.7-3.8 1.3-2 0.6-4 1-2 0.4-4.1 0.6-2 0.2-4.1 0.2-2 0-4.1-0.2-2-0.2-4.1-0.6-2-0.4-3.9-1-2-0.6-3.9-1.3-1.9-0.8-3.7-1.8-1.8-1-3.5-2.1-1.7-1.1-3.3-2.5-1.6-1.3-3.1-2.7-1.4-1.5-2.7-3-1.3-1.6-2.5-3.3-1.1-1.8-2.1-3.6-1-1.8-1.7-3.7-0.8-1.9-1.4-3.8-0.6-2-1-4-0.4-2-0.6-4.1-0.2-2-0.2-4.1 0-2 0.2-4.1 0.2-2 0.6-4 0.4-2.1 1-4 0.6-2 1.4-3.9 0.7-1.9 1.7-3.7 1-1.8 2.1-3.5 1.2-1.7 2.5-3.3 1.3-1.6 2.7-3.1 1.5-1.4 3.1-2.7 1.6-1.3 3.3-2.5 1.7-1.1 3.5-2.1 1.8-0.9 3.7-1.7 1.9-0.8 3.9-1.4 1.9-0.6 3.9-1 2.1-0.4 4.1-0.6 2.1-0.2 4.1-0.2zm-3.8 3.4q-1.9 0.2-3.7 0.5-1.9 0.4-3.7 1-1.8 0.5-3.6 1.2-1.7 0.8-3.4 1.7-1.7 0.9-3.3 1.9-1.5 1.1-3 2.3-1.5 1.2-2.8 2.5-1.3 1.4-2.6 2.8-1.2 1.5-2.2 3.1-1.1 1.5-2 3.2-0.9 1.7-1.6 3.4-0.7 1.8-1.3 3.6-0.5 1.8-0.9 3.7-0.3 1.8-0.5 3.7-0.2 1.9-0.2 3.8 0 1.9 0.2 3.8 0.2 1.9 0.5 3.8 0.4 1.8 0.9 3.6 0.6 1.8 1.3 3.6 0.7 1.7 1.6 3.4 0.9 1.7 2 3.3 1 1.5 2.2 3 1.3 1.5 2.6 2.8 1.3 1.4 2.8 2.6 1.5 1.2 3 2.2 1.6 1.1 3.3 2 1.7 0.9 3.4 1.6 1.8 0.7 3.6 1.3 1.8 0.5 3.7 0.9 1.8 0.4 3.7 0.5 1.9 0.2 3.8 0.2 1.9 0 3.8-0.2 1.9-0.1 3.7-0.5 1.9-0.4 3.7-0.9 1.8-0.6 3.6-1.3 1.7-0.7 3.4-1.6 1.7-0.9 3.3-2 1.5-1 3-2.2 1.5-1.2 2.8-2.6 1.4-1.3 2.6-2.8 1.2-1.5 2.2-3 1.1-1.6 2-3.3 0.9-1.7 1.6-3.4 0.7-1.8 1.3-3.6 0.5-1.8 0.9-3.6 0.4-1.9 0.6-3.8 0.1-1.9 0.1-3.8 0-1.9-0.1-3.8-0.2-1.9-0.6-3.7-0.4-1.9-0.9-3.7-0.6-1.8-1.3-3.6-0.7-1.7-1.6-3.4-0.9-1.7-2-3.2-1-1.6-2.2-3.1-1.2-1.4-2.6-2.8-1.3-1.3-2.8-2.5-1.5-1.2-3-2.3-1.6-1-3.3-1.9-1.7-0.9-3.4-1.7-1.8-0.7-3.6-1.2-1.8-0.6-3.7-1-1.8-0.3-3.7-0.5-1.9-0.2-3.8-0.2-1.9 0-3.8 0.2z"/><path class="a" d="m634.3 627.4c0 0-0.3-30.1 33.3-32.8q-5.4 2.5-10.3 6-4.9 3.4-9.1 7.6-4.2 4.2-7.7 9-3.5 4.9-6.2 10.2z"/><path class="a" d="m694.4 641.6q0 0.5-0.1 1-0.1 0.5-0.3 0.9-0.2 0.5-0.5 0.9-0.2 0.4-0.6 0.8-0.4 0.4-0.8 0.6-0.4 0.3-0.9 0.5-0.4 0.2-0.9 0.3-0.5 0.1-1 0.1-0.6 0-1.1-0.1-0.4-0.1-0.9-0.3-0.5-0.2-0.9-0.5-0.4-0.2-0.8-0.6-0.3-0.4-0.6-0.8-0.3-0.4-0.5-0.9-0.2-0.4-0.3-0.9-0.1-0.5-0.1-1 0-0.6 0.1-1.1 0.1-0.4 0.3-0.9 0.2-0.5 0.5-0.9 0.3-0.4 0.6-0.8 0.4-0.3 0.8-0.6 0.4-0.3 0.9-0.5 0.5-0.2 0.9-0.3 0.5-0.1 1.1-0.1 0.5 0 1 0.1 0.5 0.1 0.9 0.3 0.5 0.2 0.9 0.5 0.4 0.3 0.8 0.6 0.4 0.4 0.6 0.8 0.3 0.4 0.5 0.9 0.2 0.5 0.3 0.9 0.1 0.5 0.1 1.1z"/><path class="a" d="m695.3 630.6q0 0.6-0.2 1.2-0.3 0.6-0.7 1.1-0.5 0.4-1.1 0.6-0.5 0.3-1.2 0.3-0.6 0-1.2-0.3-0.6-0.2-1-0.6-0.5-0.5-0.7-1.1-0.3-0.6-0.3-1.2 0-0.6 0.3-1.2 0.2-0.6 0.7-1.1 0.4-0.4 1-0.6 0.6-0.3 1.2-0.3 0.7 0 1.2 0.3 0.6 0.2 1.1 0.6 0.4 0.5 0.7 1.1 0.2 0.6 0.2 1.2z"/><path fill-rule="evenodd" class="a" d="m30.9 877.3q1.4 0.2 2.7 0.4 1.3 0.3 2.6 0.7 1.3 0.4 2.5 0.9 1.2 0.5 2.4 1.1 1.2 0.7 2.3 1.4 1.2 0.8 2.2 1.6 1 0.9 2 1.8 0.9 1 1.8 2 0.8 1 1.6 2.2 0.7 1.1 1.4 2.3 0.6 1.1 1.1 2.4 0.5 1.2 0.9 2.5 0.4 1.3 0.7 2.6 0.2 1.3 0.4 2.7 0.1 1.3 0.1 2.6 0 1.4-0.1 2.7-0.2 1.4-0.4 2.7-0.3 1.3-0.7 2.6-0.4 1.3-0.9 2.5-0.5 1.2-1.1 2.4-0.7 1.2-1.4 2.3-0.8 1.2-1.6 2.2-0.9 1-1.8 2-1 0.9-2 1.8-1 0.8-2.2 1.6-1.1 0.7-2.3 1.4-1.1 0.6-2.4 1.1-1.2 0.5-2.5 0.9-1.3 0.4-2.6 0.7-1.3 0.2-2.7 0.4-1.3 0.1-2.7 0.1-1.3 0-2.6-0.1-1.4-0.2-2.7-0.4-1.3-0.3-2.6-0.7-1.3-0.4-2.5-0.9-1.3-0.5-2.5-1.1-1.1-0.7-2.3-1.4-1.1-0.8-2.1-1.6-1-0.9-2-1.8-0.9-1-1.8-2-0.9-1-1.6-2.2-0.7-1.1-1.4-2.3-0.6-1.2-1.1-2.4-0.5-1.2-0.9-2.5-0.4-1.3-0.7-2.6-0.2-1.3-0.4-2.7-0.1-1.3-0.1-2.7 0-1.3 0.1-2.6 0.2-1.4 0.4-2.7 0.3-1.3 0.7-2.6 0.4-1.3 0.9-2.5 0.5-1.3 1.1-2.4 0.7-1.2 1.4-2.4 0.7-1.1 1.6-2.1 0.9-1 1.8-2 1-0.9 2-1.8 1-0.8 2.1-1.6 1.2-0.7 2.3-1.4 1.2-0.6 2.5-1.1 1.2-0.5 2.5-0.9 1.3-0.4 2.6-0.7 1.3-0.2 2.7-0.4 1.3-0.1 2.6-0.1 1.4 0 2.7 0.1zm-5.1 2.1q-1.3 0.1-2.5 0.4-1.2 0.2-2.4 0.6-1.2 0.3-2.3 0.8-1.2 0.5-2.3 1.1-1.1 0.6-2.1 1.2-1 0.7-2 1.5-0.9 0.8-1.8 1.7-0.9 0.9-1.7 1.8-0.8 1-1.5 2-0.6 1-1.2 2.1-0.6 1.1-1.1 2.3-0.5 1.1-0.8 2.3-0.4 1.2-0.6 2.4-0.3 1.2-0.4 2.5-0.1 1.2-0.1 2.4 0 1.3 0.1 2.5 0.1 1.3 0.4 2.5 0.2 1.2 0.6 2.4 0.3 1.2 0.8 2.3 0.5 1.1 1.1 2.2 0.6 1.1 1.2 2.2 0.7 1 1.5 2 0.8 0.9 1.7 1.8 0.9 0.9 1.8 1.7 1 0.7 2 1.4 1 0.7 2.1 1.3 1.1 0.6 2.3 1.1 1.1 0.4 2.3 0.8 1.2 0.4 2.4 0.6 1.2 0.2 2.5 0.4 1.2 0.1 2.4 0.1 1.3 0 2.5-0.1 1.3-0.2 2.5-0.4 1.2-0.2 2.4-0.6 1.2-0.4 2.3-0.8 1.2-0.5 2.3-1.1 1-0.6 2.1-1.3 1-0.7 2-1.4 0.9-0.8 1.8-1.7 0.9-0.9 1.7-1.8 0.8-1 1.4-2 0.7-1.1 1.3-2.2 0.6-1.1 1.1-2.2 0.5-1.1 0.8-2.3 0.4-1.2 0.6-2.4 0.3-1.2 0.4-2.5 0.1-1.2 0.1-2.5 0-1.2-0.1-2.4-0.1-1.3-0.4-2.5-0.2-1.2-0.6-2.4-0.3-1.2-0.8-2.3-0.5-1.2-1.1-2.3-0.6-1.1-1.3-2.1-0.6-1-1.4-2-0.8-0.9-1.7-1.8-0.9-0.9-1.8-1.7-1-0.8-2-1.5-1.1-0.6-2.1-1.2-1.1-0.6-2.3-1.1-1.1-0.5-2.3-0.8-1.2-0.4-2.4-0.6-1.2-0.3-2.5-0.4-1.2-0.1-2.5-0.1-1.2 0-2.4 0.1z"/><path class="a" d="m7.1 903.1c0 0-0.2-19.7 21.8-21.5q-3.5 1.7-6.7 4-3.2 2.2-6 4.9-2.8 2.8-5.1 5.9-2.2 3.2-4 6.7z"/><path class="a" d="m46.4 912.3q0 0.7-0.2 1.3-0.3 0.6-0.8 1.1-0.4 0.5-1.1 0.8-0.6 0.2-1.2 0.2-0.7 0-1.3-0.2-0.7-0.3-1.1-0.8-0.5-0.5-0.8-1.1-0.2-0.6-0.2-1.3 0-0.6 0.2-1.2 0.3-0.7 0.8-1.1 0.4-0.5 1.1-0.8 0.6-0.2 1.3-0.2 0.6 0 1.2 0.2 0.7 0.3 1.1 0.8 0.5 0.4 0.8 1.1 0.2 0.6 0.2 1.2z"/><path class="a" d="m47 905.2q0 0.4-0.2 0.8-0.1 0.4-0.4 0.7-0.3 0.2-0.7 0.4-0.4 0.2-0.8 0.2-0.4 0-0.8-0.2-0.4-0.2-0.7-0.4-0.2-0.3-0.4-0.7-0.2-0.4-0.2-0.8 0-0.4 0.2-0.8 0.2-0.4 0.4-0.7 0.3-0.3 0.7-0.4 0.4-0.2 0.8-0.2 0.4 0 0.8 0.2 0.4 0.1 0.7 0.4 0.3 0.3 0.4 0.7 0.2 0.4 0.2 0.8z"/><path fill-rule="evenodd" class="a" d="m601.9 881.7q1.4 0.1 2.7 0.4 1.3 0.3 2.6 0.7 1.3 0.3 2.5 0.9 1.3 0.5 2.4 1.1 1.2 0.6 2.4 1.4 1.1 0.7 2.1 1.6 1 0.8 2 1.8 0.9 0.9 1.8 2 0.8 1 1.6 2.1 0.7 1.1 1.4 2.3 0.6 1.2 1.1 2.5 0.5 1.2 0.9 2.5 0.4 1.3 0.7 2.6 0.2 1.3 0.4 2.6 0.1 1.4 0.1 2.7 0 1.4-0.1 2.7-0.1 1.3-0.4 2.6-0.3 1.4-0.7 2.7-0.4 1.2-0.9 2.5-0.5 1.2-1.1 2.4-0.6 1.2-1.4 2.3-0.7 1.1-1.6 2.2-0.8 1-1.8 1.9-0.9 1-2 1.9-1 0.8-2.1 1.5-1.2 0.8-2.3 1.4-1.2 0.7-2.5 1.2-1.2 0.5-2.5 0.9-1.3 0.4-2.6 0.6-1.3 0.3-2.7 0.4-1.3 0.2-2.6 0.2-1.4 0-2.7-0.2-1.4-0.1-2.7-0.4-1.3-0.2-2.6-0.6-1.3-0.4-2.5-0.9-1.3-0.5-2.4-1.2-1.2-0.6-2.3-1.4-1.2-0.7-2.2-1.5-1-0.9-2-1.9-0.9-0.9-1.8-1.9-0.8-1.1-1.6-2.2-0.7-1.1-1.4-2.3-0.6-1.2-1.1-2.4-0.5-1.3-0.9-2.5-0.4-1.3-0.7-2.7-0.2-1.3-0.4-2.6-0.1-1.3-0.1-2.7 0-1.3 0.1-2.7 0.2-1.3 0.4-2.6 0.3-1.3 0.7-2.6 0.4-1.3 0.9-2.6 0.5-1.2 1.1-2.4 0.7-1.2 1.4-2.3 0.8-1.1 1.6-2.1 0.9-1.1 1.8-2 1-1 2-1.8 1-0.9 2.2-1.6 1.1-0.8 2.3-1.4 1.1-0.6 2.4-1.2 1.2-0.5 2.5-0.9 1.3-0.3 2.6-0.6 1.3-0.3 2.7-0.4 1.3-0.1 2.7-0.1 1.3 0 2.6 0.1zm-5.1 2.1q-1.3 0.1-2.5 0.4-1.2 0.2-2.4 0.6-1.2 0.3-2.3 0.8-1.2 0.5-2.2 1-1.1 0.6-2.2 1.3-1 0.7-2 1.5-0.9 0.8-1.8 1.7-0.9 0.8-1.7 1.8-0.8 1-1.4 2-0.7 1-1.3 2.1-0.6 1.1-1.1 2.3-0.5 1.1-0.8 2.3-0.4 1.2-0.6 2.4-0.3 1.2-0.4 2.4-0.1 1.3-0.1 2.5 0 1.3 0.1 2.5 0.1 1.2 0.4 2.4 0.2 1.3 0.6 2.4 0.3 1.2 0.8 2.4 0.5 1.1 1.1 2.2 0.6 1.1 1.3 2.1 0.6 1.1 1.4 2 0.8 1 1.7 1.9 0.9 0.8 1.8 1.6 1 0.8 2 1.5 1.1 0.7 2.2 1.3 1 0.6 2.2 1 1.1 0.5 2.3 0.9 1.2 0.3 2.4 0.6 1.2 0.2 2.5 0.3 1.2 0.2 2.5 0.2 1.2 0 2.4-0.2 1.3-0.1 2.5-0.3 1.2-0.3 2.4-0.6 1.2-0.4 2.3-0.9 1.2-0.4 2.3-1 1.1-0.6 2.1-1.3 1-0.7 2-1.5 0.9-0.8 1.8-1.6 0.9-0.9 1.7-1.9 0.8-0.9 1.5-2 0.6-1 1.2-2.1 0.6-1.1 1.1-2.2 0.5-1.2 0.8-2.4 0.4-1.1 0.6-2.4 0.3-1.2 0.4-2.4 0.1-1.2 0.1-2.5 0-1.2-0.1-2.5-0.1-1.2-0.4-2.4-0.2-1.2-0.6-2.4-0.3-1.2-0.8-2.3-0.5-1.2-1.1-2.3-0.6-1.1-1.2-2.1-0.7-1-1.5-2-0.8-1-1.7-1.8-0.9-0.9-1.8-1.7-1-0.8-2-1.5-1-0.7-2.1-1.3-1.1-0.5-2.3-1-1.1-0.5-2.3-0.8-1.2-0.4-2.4-0.6-1.2-0.3-2.5-0.4-1.2-0.1-2.4-0.1-1.3 0-2.5 0.1z"/><path class="a" d="m578.1 907.5c0 0-0.2-19.7 21.8-21.5q-3.5 1.7-6.7 3.9-3.2 2.3-6 5-2.8 2.8-5 5.9-2.3 3.2-4.1 6.7z"/><path class="a" d="m617.4 916.7q0 0.7-0.2 1.3-0.3 0.6-0.8 1.1-0.4 0.5-1 0.7-0.7 0.3-1.3 0.3-0.7 0-1.3-0.3-0.6-0.2-1.1-0.7-0.5-0.5-0.7-1.1-0.3-0.6-0.3-1.3 0-0.7 0.3-1.3 0.2-0.6 0.7-1.1 0.5-0.4 1.1-0.7 0.6-0.3 1.3-0.3 0.6 0 1.3 0.3 0.6 0.3 1 0.7 0.5 0.5 0.8 1.1 0.2 0.6 0.2 1.3z"/><path class="a" d="m618 909.6q0 0.4-0.1 0.8-0.2 0.3-0.5 0.6-0.3 0.3-0.7 0.5-0.3 0.1-0.8 0.1-0.4 0-0.8-0.1-0.3-0.2-0.6-0.5-0.3-0.3-0.5-0.6-0.1-0.4-0.1-0.8 0-0.5 0.1-0.8 0.2-0.4 0.5-0.7 0.3-0.3 0.6-0.5 0.4-0.1 0.8-0.1 0.5 0 0.8 0.1 0.4 0.2 0.7 0.5 0.3 0.3 0.5 0.7 0.1 0.3 0.1 0.8z"/></g></svg>