<svg version="1.2" xmlns="http://www.w3.org/2000/svg" viewBox="0 0 309 197" width="309" height="197"><style>.a{fill:#cea86a}</style><path class="a" d="m271.9 144.3c-51.9 0.5-51.8-68.3-6.7-71.8 22.8-1.8 39.5 26.5 24.5 45.9-5.5 7-17.7 11.1-25.4 4.7-13.3-11 4.3-29.2 12.3-18l0.6-0.3c-9.1-12.5-27.5 7.6-13 19.5 8.4 7 21.2 2.6 27.1-5.1 16.4-21-0.4-49-24.9-48.3-49.2 1.4-51.3 74.4 0.3 76.2z"/><path class="a" d="m54.4 130.7c0 0-2.3 0-3.4-0.5-5.3 22.9-22.8 30.6-31.9 28.1-9.4-2.5-15.3-10.6-13.3-16.9 1.6-6.6 4.5-7.1 6.7-6.1 2.1 0.7 1.1 2.5 0 4-2.3 2.7-0.8 8.1 4.5 9.7 5.2 1.1 9.5-0.9 11.1-7.5 1.7-6.2-2.8-11.9-8.4-13.7-6.3-1.6-15.1 1.8-17.8 12.2-2.7 10.1 5.2 20.2 15.7 23.2 10.1 2.8 29.1-3.3 36.8-32.5z"/><path class="a" d="m267 146.9c-34.4 4.4-91.8-27.3-91.3-70.9 0.2-21.2 21.1-15.7 23.6-1.7 4.7 27.8 18 60.7 66.8 72.8z"/><path class="a" d="m203.3 130c-19.2-9.9-33.2-36.4-37.4-56-3.9-19 4.2-32.9 9.3-40.2 4.3-6 6.7-14.7-4.1-16-18.8-2.4-15.7 42.3-13.9 51.7 4.8 25.7 23.3 48.8 46.1 60.5z"/><path class="a" d="m152.3 117.2c-13.4-11.8-37.9-14.5-54.1-11.8-15.7 2.7-23.9 13.1-28 19.2-3.3 5.1-9.2 9.6-13.5 1.7-7.4-13.7 27.7-24.7 35.5-26.2 21-4 44.2 3.2 60.1 17.1z"/><path class="a" d="m136.3 56.1c1.2 3.7 2.5 7 2.9 9 5.9 26.6 25.6 50.2 48.6 64.2-19.9-12.1-87.6-52.1-73-81.5 6.2-12.6 18.3-1.4 21.5 8.3z"/><path class="a" d="m145.5 63.5c-9.3-12.4-13.6-32.7-12-47.9 0.7-7.2 8.2-18.9 16.9-14.3 10.7 5.6-0.4 20.6-1.9 28.1-2.1 11-3.3 26.1 1.6 40.2z"/><path class="a" d="m125.9 92.8c-12.3-3.3-25.3-14.3-31.9-25-3.2-5-4.3-16.4 3.7-17.8 9.8-1.8 10.2 13.6 13 19.2 4.1 8.2 11 18.6 21.3 25.3z"/><path class="a" d="m125.2 98.4c-15.9-8-40.3-4.5-55.3 2.3-14.6 6.5-19.9 18.7-22.2 25.6-2 5.7-6.6 11.6-12.7 5-10.7-11.4 20.5-30.9 27.7-34.3 19.3-9.2 43.6-8.1 62.5 1.4z"/><path class="a" d="m60.2 137.1c-8.6 9.5-13.6 25.8-13.4 38.4 0.1 5.9 5.3 16 12.7 13 9.2-3.8 1.3-17 0.6-23.2-0.9-9.1-0.8-21.6 4.3-32.8z"/><path class="a" d="m100.9 85.9c-9.8-6.4-26-6-36.3-2.7-10 3.1-14.5 10.7-16.5 15-1.7 3.6-5.2 7.1-8.7 2.3-6.1-8.2 15.8-18.6 20.7-20.3 13.4-4.5 29.2-1.9 40.8 5.7z"/><path class="a" d="m278.9 157.2c-9.7 1.3-22.4 0.7-32.9-2.3-19-4.6-41.1-15.7-53.7-21.4-20.2-9.5-46.1-16.1-56.6-17.7-21.5-2.6-45.6 1-58.8 15.2-7.9 8.6-15.4 25.1-3 36 4.3 3.8 16.2 5.9 17.3-3.1 1-7.5-11.9-8.4-9.3-1.1 3.7-0.9 2.5 3.9-1 4.2-3.3 0.3-6.9-2.9-8.5-5.5-2.5-4.2-3.1-10.1-2-14.9 2.8-11.8 12.8-21.7 23-24.7 29-8.5 47.5-2.5 54.7-1.1 31.7 7.7 60.7 23.5 60.7 23.5 9.7 4.1 26.3 12.5 51 15.8 24.7 3.3 46-8.4 49.5-12-6.3 3.9-20.7 7.7-30.4 9.1z"/><path class="a" d="m214.6 152c-14.6-11.3-40-12.7-56.6-8.9-16 3.7-23.9 14.9-27.7 21.5-3.1 5.4-9 10.4-13.8 2.5-8.5-13.7 27-27.2 35-29.2 21.5-5.4 45.9 0.7 63.1 14.1z"/><path class="a" d="m8.4 177c2.2-0.7 4.2-1.5 5.4-1.8 16.1-3.8 30.3-15.9 38.7-29.9-7.3 12.2-31.1 53.5-49.1 44.8-7.6-3.7-1-11.1 5-13.1z"/><path class="a" d="m171.5 8.2c-1.1 0.8-2 1.4-2.6 1.7-7.8 4-13.6 12.1-16.2 20.3 2.2-7.1 9.3-31.5 19.6-29.3 4.5 0.9 2 5.6-0.8 7.3z"/><path class="a" d="m259.3 134.6c1.7 0.9 3.2 1.6 4.1 2.2 11.1 7.4 26.1 9 38.9 6.2-11.1 2.4-48.6 11.3-53.4-4-2.1-6.6 6-6.7 10.4-4.4z"/><path class="a" d="m47.1 189.4c-0.4-1.3-0.7-2.6-0.9-3.2-3.6-9.2-2.4-20.2 1.7-29-3.6 7.6-15.9 33.1-5.6 39 4.4 2.5 5.8-3.2 4.8-6.8z"/></svg>