<svg version="1.2" xmlns="http://www.w3.org/2000/svg" viewBox="0 0 309 197" width="309" height="197"><style>.a{fill:#cea86a}</style><path class="a" d="m37.1 52.7c51.9-0.6 51.8 68.2 6.7 71.8-22.8 1.8-39.5-26.5-24.5-46 5.5-7 17.7-11 25.4-4.6 13.3 10.9-4.3 29.2-12.3 17.9l-0.6 0.3c9.1 12.6 27.5-7.6 13-19.5-8.4-7-21.2-2.6-27.1 5.1-16.4 21.1 0.4 49.1 24.9 48.4 49.2-1.5 51.3-74.4-0.3-76.3z"/><path class="a" d="m254.6 66.3c0 0 2.3-0.1 3.4 0.4 5.3-22.9 22.8-30.6 31.9-28 9.4 2.5 15.3 10.5 13.3 16.8-1.6 6.6-4.5 7.1-6.7 6.1-2.1-0.7-1.1-2.5 0-4 2.3-2.7 0.8-8.1-4.5-9.6-5.2-1.2-9.5 0.8-11.1 7.4-1.7 6.3 2.8 11.9 8.4 13.7 6.3 1.7 15.1-1.7 17.8-12.2 2.7-10.1-5.2-20.1-15.7-23.2-10.1-2.7-29.1 3.3-36.8 32.6z"/><path class="a" d="m42 50.1c34.4-4.5 91.8 27.3 91.3 70.8-0.2 21.2-21.1 15.7-23.6 1.7-4.7-27.8-18-60.6-66.8-72.8z"/><path class="a" d="m105.7 66.9c19.2 9.9 33.2 36.4 37.4 56 3.9 19-4.2 33-9.3 40.2-4.3 6-6.7 14.8 4.1 16.1 18.8 2.3 15.7-42.4 13.9-51.8-4.8-25.7-23.3-48.7-46.1-60.5z"/><path class="a" d="m156.7 79.7c13.4 11.8 37.9 14.5 54.1 11.8 15.7-2.7 23.9-13.1 28-19.2 3.3-5.1 9.2-9.5 13.5-1.7 7.4 13.8-27.7 24.8-35.5 26.2-21 4.1-44.2-3.2-60.1-17.1z"/><path class="a" d="m172.7 140.8c-1.2-3.6-2.5-6.9-2.9-9-5.9-26.5-25.6-50.2-48.6-64.2 19.9 12.2 87.6 52.1 73 81.6-6.2 12.5-18.3 1.4-21.5-8.4z"/><path class="a" d="m163.5 133.4c9.3 12.5 13.6 32.7 12 47.9-0.7 7.2-8.2 18.9-16.9 14.4-10.7-5.6 0.4-20.7 1.8-28.2 2.2-10.9 3.4-26-1.5-40.2z"/><path class="a" d="m183.1 104.1c12.3 3.4 25.3 14.3 31.9 25 3.2 5.1 4.3 16.4-3.7 17.8-9.8 1.8-10.2-13.6-13-19.1-4.1-8.2-11-18.6-21.3-25.3z"/><path class="a" d="m183.8 98.5c15.9 8 40.3 4.5 55.3-2.2 14.6-6.6 19.9-18.7 22.2-25.7 2-5.7 6.6-11.5 12.7-5 10.7 11.4-20.5 30.9-27.7 34.3-19.3 9.2-43.6 8.1-62.5-1.4z"/><path class="a" d="m248.8 59.8c8.6-9.5 13.6-25.8 13.4-38.4-0.1-5.9-5.3-16-12.7-12.9-9.2 3.7-1.3 16.9-0.6 23.1 0.9 9.2 0.8 21.6-4.3 32.8z"/><path class="a" d="m208.1 111c9.8 6.4 26 6 36.3 2.8 10-3.2 14.5-10.7 16.5-15.1 1.7-3.6 5.2-7 8.7-2.3 6.1 8.3-15.8 18.6-20.7 20.3-13.4 4.5-29.2 1.9-40.8-5.7z"/><path class="a" d="m30.1 39.8c9.7-1.4 22.4-0.8 32.9 2.2 19 4.6 41.1 15.8 53.7 21.4 20.2 9.5 46.1 16.2 56.6 17.7 21.5 2.6 45.6-1 58.8-15.2 7.9-8.6 15.4-25.1 3-36-4.3-3.7-16.2-5.9-17.3 3.1-1 7.5 11.9 8.4 9.3 1.1-3.7 1-2.5-3.8 1-4.1 3.3-0.3 6.9 2.8 8.5 5.5 2.5 4.1 3.1 10 2 14.8-2.8 11.8-12.8 21.8-23 24.8-29 8.4-47.5 2.4-54.7 1.1-31.7-7.8-60.7-23.5-60.7-23.5-9.7-4.1-26.3-12.5-51-15.8-24.7-3.3-46 8.3-49.5 12 6.3-4 20.7-7.8 30.4-9.1z"/><path class="a" d="m94.4 44.9c14.6 11.4 40 12.7 56.6 9 16-3.7 23.9-15 27.7-21.5 3.1-5.5 9-10.4 13.8-2.6 8.5 13.7-27 27.2-35 29.2-21.5 5.4-45.9-0.7-63.1-14.1z"/><path class="a" d="m300.6 19.9c-2.2 0.8-4.2 1.6-5.4 1.9-16.1 3.7-30.3 15.8-38.7 29.8 7.3-12.1 31.1-53.5 49.1-44.8 7.6 3.7 1 11.1-5 13.1z"/><path class="a" d="m137.5 188.7c1.1-0.7 2-1.4 2.6-1.7 7.8-4 13.6-12 16.2-20.3-2.2 7.2-9.3 31.5-19.6 29.4-4.5-1-2-5.7 0.8-7.4z"/><path class="a" d="m49.7 62.3c-1.7-0.9-3.2-1.6-4.1-2.2-11.1-7.3-26.1-9-38.9-6.1 11.1-2.5 48.6-11.4 53.4 4 2.1 6.5-6 6.7-10.4 4.3z"/><path class="a" d="m261.9 7.5c0.4 1.4 0.7 2.6 0.9 3.3 3.6 9.1 2.4 20.2-1.7 28.9 3.6-7.6 15.9-33.1 5.6-39-4.4-2.5-5.8 3.3-4.8 6.8z"/></svg>